<svg width="28" height="22" viewBox="0 0 28 22" fill="none" xmlns="http://www.w3.org/2000/svg">
<path d="M27 3.46154C27 2.8087 26.7484 2.1826 26.3006 1.72097C25.8527 1.25934 25.2453 1 24.6119 1H3.38806C2.75471 1 2.14729 1.25934 1.69945 1.72097C1.2516 2.1826 1 2.8087 1 3.46154V18.5385C1 19.1913 1.2516 19.8174 1.69945 20.279C2.14729 20.7407 2.75471 21 3.38806 21H24.6119C25.2453 21 25.8527 20.7407 26.3006 20.279C26.7484 19.8174 27 19.1913 27 18.5385V3.46154ZM3.38806 2.23077H24.6119C24.675 2.23179 24.7379 2.23797 24.8 2.24923L14.8627 12.9538C14.7513 13.0734 14.6175 13.1686 14.4696 13.2336C14.3216 13.2986 14.1624 13.3321 14.0015 13.3321C13.8406 13.3321 13.6814 13.2986 13.5334 13.2336C13.3854 13.1686 13.2517 13.0734 13.1403 12.9538L3.2 2.24923C3.26212 2.23797 3.325 2.23179 3.38806 2.23077ZM2.19403 3.46154C2.19565 3.31413 2.22295 3.16823 2.27463 3.03077L8.54328 9.78462L2.19403 17.8277V3.46154ZM24.6119 19.7692H3.38806C3.22434 19.7687 3.06247 19.7334 2.91253 19.6657C2.76258 19.5979 2.62775 19.4991 2.51642 19.3754L9.37612 10.6892L12.2776 13.8154C12.5005 14.055 12.7681 14.2458 13.0644 14.376C13.3606 14.5063 13.6794 14.5735 14.0015 14.5735C14.3236 14.5735 14.6423 14.5063 14.9386 14.376C15.2349 14.2458 15.5025 14.055 15.7254 13.8154L18.4358 10.8954L25.4806 19.3846C25.3683 19.5052 25.2334 19.6009 25.0841 19.666C24.9347 19.7311 24.7741 19.7641 24.6119 19.7631V19.7692ZM25.806 17.8831L19.2627 9.99385L25.7254 3.03077C25.7771 3.16823 25.8043 3.31413 25.806 3.46154V17.8831Z" fill="#E2E2E2" stroke="#E2E2E2" stroke-width="0.5"/>
</svg>
