<svg width="107" height="98" viewBox="0 0 107 98" fill="none" xmlns="http://www.w3.org/2000/svg">
<path d="M44.5908 53.4203L53.8591 34.4798L63.262 53.3754L74.8417 55.0136C67.8849 39.3945 60.8383 23.7753 53.6796 8.24597C46.7676 23.8875 39.8557 39.5291 32.9438 55.1707L44.5908 53.4427V53.4203Z" fill="#005889"/>
<path d="M67.3687 13.9911C67.3687 21.4192 61.3544 27.4334 53.9263 27.4334C46.4983 27.4334 40.484 21.4192 40.484 13.9911C40.484 6.56302 46.5207 0.548759 53.9263 0.548759C61.332 0.548759 67.3687 6.56302 67.3687 13.9911Z" fill="#005889"/>
<path d="M61.7135 61.7688L79.1055 64.2374L66.5608 76.5352L69.5904 93.8599L54.0162 85.7361L38.4868 93.9496L41.3817 76.6249L28.7697 64.3944L46.1393 61.8137L53.8815 46.0375L61.7135 61.7688Z" fill="#1B75BB"/>
<path d="M94.28 77.1824L94.6316 77.8871L95.4114 77.9978L103.774 79.1855L97.7376 85.0902L97.1732 85.6422L97.3087 86.42L98.762 94.7596L91.2671 90.847L90.567 90.4816L89.8695 90.8519L82.4138 94.8107L83.8162 86.4788L83.9472 85.7005L83.3799 85.1517L77.3033 79.2732L85.6567 78.0185L86.4354 77.9016L86.7814 77.1943L90.4965 69.5988L94.28 77.1824Z" stroke="#1B75BB" stroke-width="3"/>
<path d="M20.2008 77.4951L20.5522 78.2009L21.3327 78.3117L29.7061 79.5009L23.6785 85.4294L23.1175 85.9812L23.2526 86.7563L24.7058 95.0959L17.2109 91.1834L16.5116 90.8183L15.8146 91.1876L8.3346 95.1505L9.73759 86.8151L9.86837 86.0382L9.30284 85.4895L3.22545 79.5938L11.5972 78.3554L12.3783 78.2398L12.7252 77.5306L16.4389 69.9382L20.2008 77.4951Z" stroke="#1B75BB" stroke-width="3"/>
</svg>
