<svg width="134" height="103" viewBox="0 0 134 103" fill="none" xmlns="http://www.w3.org/2000/svg">
<mask id="mask0_0_85" style="mask-type:luminance" maskUnits="userSpaceOnUse" x="0" y="0" width="134" height="103">
<path d="M134 0H0V103H134V0Z" fill="white"/>
</mask>
<g mask="url(#mask0_0_85)">
<path d="M51.4219 23.9032C51.4219 23.9032 48.1913 21.6745 45.983 16.7671C43.9587 12.2483 43.5702 7.81129 43.5293 7.0752H54.121L53.344 15.0496H61.1548L60.3982 7.0752H69.8653L69.0883 15.0496H76.8991L76.1221 7.0752H86.7137C86.6319 7.89308 86.0594 13.0662 84.2601 16.7467C82.3994 20.5499 79.1278 23.5761 78.7802 23.8828H51.4219V23.9032Z" fill="#0D73C2"/>
<path d="M44.797 86.6555C42.5273 83.2613 41.505 79.7648 41.7094 76.2683C41.8935 73.3239 44.1222 70.1137 46.0851 67.2716C46.8826 66.1265 47.6391 65.0428 48.1708 64.1023H83.4012C83.7897 64.777 84.2395 65.4927 84.6894 66.2288C86.6114 69.3367 88.7993 72.8537 88.9833 76.2683C89.1673 79.7443 88.1041 83.2408 85.8344 86.6555H44.797Z" fill="#0D73C2"/>
<path d="M78.0441 28.7083L80.9885 59.563H50.236L53.2008 28.7083H78.0441Z" fill="#0D73C2"/>
<path d="M42.5889 96.327C42.6707 95.8772 42.9978 94.2619 43.325 93.3622C43.7135 92.3398 45.0221 91.297 45.0426 91.2766H86.6525C86.6525 91.2766 88.0429 92.7488 88.3701 93.7098C88.6563 94.5481 88.9426 95.9181 89.0244 96.327H42.5889Z" fill="#0D73C2"/>
<path d="M46.2873 51.3159C45.8806 52.2105 45.5011 53.1052 45.0944 53.9999C39.3467 40.9593 33.7076 27.8916 28.0142 14.8238H30.3729C35.6596 26.9969 40.9192 39.1699 46.2602 51.2888" fill="#005889"/>
<path d="M11.7205 19.5959C15.001 18.8096 18.0104 19.6772 21.8602 18.7283C23.9749 18.1861 25.2491 16.3154 25.954 14.7429C28.3127 20.1923 30.6714 25.6146 33.0572 31.064C30.6172 33.5583 28.5567 34.5614 26.3607 34.4801C23.5953 34.3987 22.0771 33.0432 19.2033 34.2903C16.3024 35.5374 13.5912 39.0348 13.5912 39.0348L6 24.259C6.97601 21.331 8.44003 20.4092 11.7205 19.5959Z" fill="#005889"/>
<path d="M84 51.3159C84.4067 52.2105 84.7862 53.1052 85.1929 53.9999C90.9405 40.9593 96.5797 27.8916 102.273 14.8238H99.9144C94.6277 26.9969 89.3681 39.1699 84.0271 51.2888" fill="#005889"/>
<path d="M118.567 19.5959C115.286 18.8096 112.277 19.6772 108.427 18.7283C106.312 18.1861 105.038 16.3154 104.333 14.7429C101.975 20.1923 99.6159 25.6146 97.2301 31.064C99.6701 33.5583 101.731 34.5614 103.927 34.4801C106.692 34.3987 108.21 33.0432 111.084 34.2903C113.985 35.5374 116.696 39.0348 116.696 39.0348L124.287 24.259C123.311 21.331 121.847 20.4092 118.567 19.5959Z" fill="#005889"/>
</g>
</svg>
