<svg width="81" height="97" viewBox="0 0 81 97" fill="none" xmlns="http://www.w3.org/2000/svg">
<mask id="path-1-inside-1_0_101" fill="white">
<path d="M58.9627 8.43285C55.0586 9.03519 52.1808 11.3107 47.6074 11.98C44.0603 12.4931 41.1378 9.39214 40 7.96436V29.8719C44.2833 31.902 47.2058 32.1697 49.7491 31.032C52.6939 29.7157 53.7201 27.5741 57.4234 27.641C61.1044 27.7079 65.6109 30.2958 65.6109 30.2958L67.2394 10.9761C64.8747 8.23206 62.8891 7.85281 58.9627 8.45516"/>
</mask>
<path d="M47.6074 11.98L48.0369 14.9491L48.0418 14.9484L47.6074 11.98ZM40 7.96436L42.3462 6.09474L37 -0.614187V7.96436H40ZM40 29.8719H37V31.7699L38.7151 32.5828L40 29.8719ZM49.7491 31.032L48.5249 28.2931L48.524 28.2935L49.7491 31.032ZM57.4234 27.641L57.4779 24.6415L57.4776 24.6415L57.4234 27.641ZM65.6109 30.2958L64.1169 32.8973L68.2043 35.2446L68.6002 30.5478L65.6109 30.2958ZM67.2394 10.9761L70.2288 11.2281L70.3347 9.97229L69.512 9.01763L67.2394 10.9761ZM58.5053 5.46793C56.1369 5.83333 54.1007 6.70899 52.4002 7.40468C50.6335 8.12741 49.0659 8.7346 47.173 9.01161L48.0418 14.9484C50.7223 14.5561 52.8803 13.6909 54.6719 12.958C56.5297 12.198 57.8844 11.6347 59.4202 11.3978L58.5053 5.46793ZM47.1779 9.0109C46.4145 9.12133 45.5505 8.87033 44.58 8.21444C43.615 7.56219 42.8181 6.68701 42.3462 6.09474L37.6538 9.83397C38.3196 10.6695 39.5529 12.0587 41.2203 13.1856C42.8823 14.3088 45.2531 15.3518 48.0369 14.9491L47.1779 9.0109ZM37 7.96436V29.8719H43V7.96436H37ZM38.7151 32.5828C43.3445 34.7769 47.2689 35.4281 50.9742 33.7704L48.524 28.2935C47.1428 28.9114 45.2222 29.0271 41.2849 27.161L38.7151 32.5828ZM50.9733 33.7708C52.6918 33.0027 54.2855 31.7475 54.9116 31.3493C55.6339 30.89 56.2446 30.6202 57.3692 30.6405L57.4776 24.6415C54.8989 24.5949 53.1449 25.3624 51.692 26.2863C50.143 27.2713 49.7511 27.745 48.5249 28.2931L50.9733 33.7708ZM57.3689 30.6405C58.638 30.6636 60.2651 31.1521 61.7523 31.7663C62.4581 32.0578 63.0643 32.3487 63.4913 32.5654C63.7037 32.6733 63.8691 32.7614 63.9772 32.8202C64.0312 32.8495 64.0707 32.8715 64.0945 32.8848C64.1064 32.8914 64.1143 32.8959 64.1181 32.898C64.12 32.8991 64.1208 32.8996 64.1206 32.8995C64.1205 32.8994 64.1202 32.8992 64.1196 32.8989C64.1192 32.8987 64.1189 32.8985 64.1184 32.8982C64.1182 32.8981 64.1178 32.8979 64.1177 32.8978C64.1173 32.8976 64.1169 32.8973 65.6109 30.2958C67.1048 27.6942 67.1044 27.694 67.1039 27.6937C67.1037 27.6936 67.1032 27.6933 67.1029 27.6931C67.1021 27.6927 67.1014 27.6922 67.1005 27.6917C67.0988 27.6908 67.0968 27.6896 67.0945 27.6883C67.09 27.6857 67.0843 27.6825 67.0776 27.6787C67.0641 27.671 67.0462 27.661 67.0242 27.6486C66.9801 27.624 66.9192 27.5902 66.8428 27.5487C66.6901 27.4657 66.4747 27.3511 66.2071 27.2153C65.6741 26.9447 64.9236 26.5845 64.0427 26.2207C62.3564 25.5242 59.8898 24.6853 57.4779 24.6415L57.3689 30.6405ZM68.6002 30.5478L70.2288 11.2281L64.25 10.7241L62.6215 30.0438L68.6002 30.5478ZM69.512 9.01763C68.0937 7.37191 66.5362 6.14852 64.5026 5.57381C62.5764 5.02946 60.5684 5.17374 58.5078 5.48985L59.4176 11.4205C61.2835 11.1342 62.2314 11.167 62.8708 11.3477C63.4028 11.498 64.0204 11.8362 64.9669 12.9345L69.512 9.01763Z" fill="#1B75BB" mask="url(#path-1-inside-1_0_101)"/>
<path d="M40.9149 3.34637H38.684V44.4398H40.9149V3.34637Z" fill="#005889"/>
<path d="M40.0225 6.3804C41.7844 6.3804 43.2127 4.9521 43.2127 3.1902C43.2127 1.4283 41.7844 0 40.0225 0C38.2606 0 36.8323 1.4283 36.8323 3.1902C36.8323 4.9521 38.2606 6.3804 40.0225 6.3804Z" fill="#005889"/>
<path d="M41.2272 42.4545L40.0225 40.759L38.8178 42.4545L0 97.0003L28.8457 83.3917L38.8178 95.4386L40.0225 96.8887L41.2272 95.4386L51.1994 83.3917L80.0451 97.0003L41.2272 42.4545Z" fill="#1B75BB"/>
<path d="M8.72279 47.4515C11.84 47.4515 14.367 44.9245 14.367 41.8073C14.367 38.6901 11.84 36.1631 8.72279 36.1631C5.60558 36.1631 3.07858 38.6901 3.07858 41.8073C3.07858 44.9245 5.60558 47.4515 8.72279 47.4515Z" fill="#005889"/>
<path d="M71.8574 47.4515C74.9746 47.4515 77.5016 44.9245 77.5016 41.8073C77.5016 38.6901 74.9746 36.1631 71.8574 36.1631C68.7402 36.1631 66.2132 38.6901 66.2132 41.8073C66.2132 44.9245 68.7402 47.4515 71.8574 47.4515Z" fill="#005889"/>
</svg>
