<svg width="45" height="32" viewBox="0 0 45 32" fill="none" xmlns="http://www.w3.org/2000/svg">
<path d="M1.60714 0C1.18091 4.24977e-05 0.772157 0.168636 0.470768 0.468685C0.16938 0.768734 4.26164e-05 1.17567 0 1.6V30.4C4.26164e-05 30.8243 0.16938 31.2313 0.470768 31.5313C0.772157 31.8314 1.18091 32 1.60714 32H43.3929C43.8191 32 44.2278 31.8314 44.5292 31.5313C44.8306 31.2313 45 30.8243 45 30.4V1.6C45 1.17567 44.8306 0.768734 44.5292 0.468685C44.2278 0.168636 43.8191 4.2427e-05 43.3929 0H1.60714ZM6.01004 3.2H38.99L22.5 17.1L6.01004 3.2ZM3.21429 5.05003L21.4621 20.4166C21.7522 20.661 22.12 20.795 22.5 20.795C22.88 20.795 23.2478 20.661 23.5379 20.4166L41.7857 5.05003V28.8H3.21429V5.05003Z" fill="#1B75BB"/>
</svg>
