<svg width="16" height="20" viewBox="0 0 16 20" fill="none" xmlns="http://www.w3.org/2000/svg">
<path d="M3.93333 4.6C3.93333 2.61895 5.55229 1 7.53333 1C9.51438 1 11.1333 2.61895 11.1333 4.6C11.1333 6.5716 9.52388 8.16667 7.53333 8.16667C5.54755 8.16667 3.93333 6.543 3.93333 4.6ZM7.85059 11.5321C11.2629 11.7063 14.0048 14.5131 14.0667 17.9088V18.0667C14.0667 18.3058 13.969 18.5501 13.7929 18.7262C13.623 18.8961 13.3815 19 13.1 19H1.96667C1.42997 19 1 18.559 1 18.0667C1 16.2402 1.72134 14.5679 3.02419 13.323C4.32288 12.082 6.05411 11.4455 7.85059 11.5321Z" stroke="#E2E2E2" stroke-width="2"/>
</svg>
