<svg width="106" height="29" viewBox="0 0 106 29" fill="none" xmlns="http://www.w3.org/2000/svg">
<g clip-path="url(#clip0_1_66)">
<path d="M11.6479 0H0V28.2299L11.6479 0Z" fill="#FA0C00"/>
<path d="M19.8431 1.52588e-05H31.4758V28.2299L19.8431 1.52588e-05Z" fill="#FA0C00"/>
<path d="M15.7455 10.4045L23.1591 28.2299H18.2951L16.0794 22.5547H10.6538L15.7455 10.4045Z" fill="#FA0C00"/>
<path d="M50.4784 17.9525L51.8519 21.9436C51.8974 22.0436 51.9657 22.0897 52.0871 22.0897H54.7278C54.872 22.0897 54.8947 22.0205 54.872 21.8744L49.4161 6.51754C49.3933 6.3945 49.3705 6.37143 49.2491 6.37143H45.971C45.88 6.37143 45.8268 6.44064 45.8268 6.54061C45.7813 7.34806 45.713 7.59414 45.6144 7.83252L40.7503 21.8513C40.7276 22.0205 40.7807 22.0897 40.9173 22.0897H43.2772C43.4214 22.0897 43.4897 22.0436 43.5428 21.8975L44.8404 17.9525H50.4784ZM45.5916 15.3456C46.3049 13.1617 47.2458 10.3625 47.6252 8.76301H47.648C48.1185 10.4394 49.2263 13.7615 49.7272 15.3456H45.5916Z" fill="#FA0C00"/>
<path d="M61.8859 22.3281C63.3049 22.3281 64.8149 22.0666 66.3478 21.3976C66.4692 21.3514 66.4919 21.2976 66.4919 21.1823C66.4464 20.7516 66.3933 20.1287 66.3933 19.652V5.19482C66.3933 5.10254 66.3933 5.0564 66.2795 5.0564H63.7071C63.6084 5.0564 63.5629 5.10254 63.5629 5.22558V10.1241C63.1607 10.0779 62.88 10.0549 62.5461 10.0549C58.3953 10.0549 55.8457 12.831 55.8457 16.2991C55.8457 20.321 58.4636 22.3281 61.8859 22.3281ZM63.5629 19.652C63.138 19.7904 62.6675 19.8442 62.1894 19.8442C60.3076 19.8442 58.7672 18.7676 58.7672 16.153C58.7672 13.8383 60.3531 12.4695 62.455 12.4695C62.88 12.4695 63.2518 12.5157 63.5629 12.6387V19.652Z" fill="#FA0C00"/>
<path d="M74.6985 10.0549C71.1548 10.0549 68.9618 12.8079 68.9618 16.2069C68.9618 19.2444 70.7071 22.3281 74.6453 22.3281C77.9766 22.3281 80.3137 19.8442 80.3137 16.13C80.3137 12.8541 78.3332 10.0549 74.6985 10.0549ZM74.5543 12.4696C76.5576 12.4696 77.4074 14.2152 77.4074 16.2069C77.4074 18.6677 76.1554 19.8904 74.6985 19.8904C72.9001 19.8904 71.8377 18.3601 71.8377 16.1531C71.8377 13.8845 72.9684 12.4696 74.5543 12.4696Z" fill="#FA0C00"/>
<path d="M82.9732 5.0564C82.8746 5.0564 82.8063 5.10254 82.8063 5.22558V21.5898C82.8063 21.6591 82.8746 21.7821 82.9732 21.8052C84.1039 22.1589 85.2876 22.3281 86.5093 22.3281C90.0075 22.3281 93.407 20.1287 93.407 15.6993C93.407 12.4926 91.2368 10.0549 87.8372 10.0549C87.0557 10.0549 86.3272 10.1779 85.6898 10.3932L85.6594 5.24865C85.6594 5.07947 85.6139 5.0564 85.447 5.0564H82.9732ZM90.5007 15.9915C90.5007 18.6446 88.7099 19.8903 86.7749 19.8903C86.3727 19.8903 86.0161 19.8673 85.6898 19.7673V12.7848C86.0616 12.6387 86.5093 12.5157 87.3364 12.5157C89.2031 12.5157 90.5007 13.7153 90.5007 15.9915Z" fill="#FA0C00"/>
<path d="M103.007 16.8529C104.161 16.8529 105.109 16.8298 105.435 16.7529C105.557 16.7298 105.602 16.6837 105.625 16.5837C105.693 16.3222 105.724 15.7763 105.724 15.1072C105.724 12.831 104.373 10.0549 100.882 10.0549C97.316 10.0549 95.3354 13.0002 95.3354 16.3222C95.3354 19.2675 96.8683 22.3281 101.163 22.3281C102.772 22.3281 103.811 22.0666 104.707 21.636C104.798 21.5899 104.843 21.513 104.843 21.3746V19.3829C104.843 19.2675 104.775 19.2444 104.707 19.2906C103.811 19.6751 102.84 19.8673 101.778 19.8673C99.3724 19.8673 98.2797 18.5216 98.2114 16.8529H103.007ZM98.2114 14.7919C98.4011 13.6231 99.1295 12.3542 100.761 12.3542C102.559 12.3542 103.03 13.8845 103.03 14.5766C103.03 14.5997 103.03 14.6997 103.03 14.7689C102.931 14.7919 102.628 14.7919 101.732 14.7919H98.2114Z" fill="#FA0C00"/>
</g>
<defs>
<clipPath id="clip0_1_66">
<rect width="105.724" height="28.2299" fill="white"/>
</clipPath>
</defs>
</svg>
