<svg width="60" height="38" viewBox="0 0 60 38" fill="none" xmlns="http://www.w3.org/2000/svg">
<g clip-path="url(#clip0_1_180)">
<path d="M16.9903 13.8356C16.9903 14.5783 17.069 15.1805 17.2067 15.6221C17.364 16.0637 17.5606 16.5454 17.8359 17.0673C17.9342 17.2279 17.9736 17.3885 17.9736 17.529C17.9736 17.7297 17.8556 17.9304 17.5999 18.1312L16.3611 18.9742C16.1841 19.0947 16.0071 19.1549 15.8498 19.1549C15.6531 19.1549 15.4565 19.0545 15.2598 18.8739C14.9845 18.5728 14.7486 18.2516 14.5519 17.9304C14.3553 17.5892 14.1586 17.2078 13.9423 16.7461C12.4084 18.5929 10.4813 19.5162 8.16085 19.5162C6.50901 19.5162 5.19147 19.0345 4.2279 18.071C3.26432 17.1075 2.77271 15.8228 2.77271 14.2169C2.77271 12.5107 3.36265 11.1257 4.5622 10.0819C5.76175 9.03812 7.3546 8.51623 9.38007 8.51623C10.0487 8.51623 10.7369 8.57645 11.4645 8.67681C12.1921 8.77718 12.9394 8.93776 13.726 9.11842V7.65309C13.726 6.12754 13.4114 5.06368 12.8017 4.44142C12.1725 3.81915 11.1106 3.51806 9.59638 3.51806C8.90812 3.51806 8.20018 3.59835 7.47259 3.77901C6.74499 3.95966 6.03706 4.18047 5.34879 4.46149C5.03415 4.602 4.79818 4.68229 4.66052 4.72244C4.52287 4.76258 4.42455 4.78266 4.34589 4.78266C4.07058 4.78266 3.93293 4.58193 3.93293 4.16039V3.17682C3.93293 2.85565 3.97226 2.61478 4.07058 2.47427C4.1689 2.33376 4.34589 2.19324 4.62119 2.05273C5.30946 1.69142 6.13538 1.39033 7.09896 1.14945C8.06253 0.888502 9.0851 0.768065 10.1667 0.768065C12.5068 0.768065 14.2176 1.31003 15.3188 2.39397C16.4004 3.47791 16.951 5.1239 16.951 7.33192V13.8356H16.9903ZM9.00644 16.8867C9.65538 16.8867 10.324 16.7662 11.0319 16.5253C11.7398 16.2845 12.3691 15.8429 12.9001 15.2407C13.2147 14.8593 13.4507 14.4377 13.5687 13.956C13.6867 13.4742 13.7653 12.8921 13.7653 12.2097V11.3666C13.195 11.2261 12.5854 11.1056 11.9562 11.0253C11.3269 10.9451 10.7173 10.9049 10.1077 10.9049C8.79013 10.9049 7.82655 11.1659 7.17762 11.7078C6.52868 12.2498 6.21404 13.0126 6.21404 14.0162C6.21404 14.9596 6.45002 15.6622 6.94164 16.144C7.41359 16.6458 8.10186 16.8867 9.00644 16.8867ZM24.7973 19.0545C24.4433 19.0545 24.2073 18.9943 24.05 18.8538C23.8927 18.7334 23.755 18.4523 23.637 18.071L19.0158 2.55456C18.8978 2.1531 18.8388 1.89215 18.8388 1.75164C18.8388 1.43047 18.9961 1.24982 19.3108 1.24982H21.2379C21.6116 1.24982 21.8672 1.31003 22.0049 1.45055C22.1622 1.57098 22.2802 1.852 22.3982 2.23339L25.7018 15.5217L28.7695 2.23339C28.8679 1.83193 28.9859 1.57098 29.1432 1.45055C29.3005 1.33011 29.5758 1.24982 29.9298 1.24982H31.5029C31.8766 1.24982 32.1322 1.31003 32.2895 1.45055C32.4469 1.57098 32.5845 1.852 32.6632 2.23339L35.7702 15.6823L39.1722 2.23339C39.2902 1.83193 39.4279 1.57098 39.5655 1.45055C39.7228 1.33011 39.9785 1.24982 40.3324 1.24982H42.1613C42.4759 1.24982 42.6529 1.4104 42.6529 1.75164C42.6529 1.852 42.6332 1.95237 42.6135 2.07281C42.5939 2.19324 42.5546 2.35383 42.4759 2.57463L37.7367 18.091C37.6187 18.4925 37.481 18.7534 37.3237 18.8739C37.1664 18.9943 36.9108 19.0746 36.5765 19.0746H34.8853C34.5117 19.0746 34.256 19.0144 34.0987 18.8739C33.9414 18.7334 33.8037 18.4724 33.7251 18.071L30.677 5.1239L27.6487 18.0509C27.5503 18.4523 27.4323 18.7133 27.275 18.8538C27.1177 18.9943 26.8424 19.0545 26.4884 19.0545H24.7973ZM50.0665 19.5965C49.0439 19.5965 48.0214 19.4761 47.0381 19.2352C46.0549 18.9943 45.288 18.7334 44.7767 18.4323C44.462 18.2516 44.2457 18.0509 44.1671 17.8702C44.0884 17.6896 44.0491 17.4888 44.0491 17.3082V16.2845C44.0491 15.8629 44.2064 15.6622 44.5014 15.6622C44.6194 15.6622 44.7373 15.6823 44.8553 15.7224C44.9733 15.7626 45.1503 15.8429 45.347 15.9232C46.0156 16.2242 46.7432 16.4651 47.5101 16.6257C48.2967 16.7863 49.0636 16.8666 49.8502 16.8666C51.0891 16.8666 52.0526 16.6458 52.7212 16.2042C53.3898 15.7626 53.7438 15.1202 53.7438 14.2972C53.7438 13.7352 53.5668 13.2735 53.2129 12.8921C52.8589 12.5107 52.1903 12.1695 51.2267 11.8483L48.3753 10.9451C46.9398 10.4834 45.8779 9.8009 45.229 8.89761C44.58 8.0144 44.2457 7.03083 44.2457 5.98703C44.2457 5.14397 44.4227 4.40127 44.7767 3.75894C45.1306 3.1166 45.6026 2.55456 46.1925 2.11295C46.7825 1.65127 47.4511 1.31003 48.2377 1.06916C49.0243 0.828283 49.8502 0.727919 50.7154 0.727919C51.1481 0.727919 51.6004 0.747992 52.033 0.80821C52.4853 0.868429 52.8982 0.948721 53.3112 1.02901C53.7045 1.12938 54.0781 1.22974 54.4321 1.35018C54.786 1.47062 55.0614 1.59106 55.258 1.71149C55.5333 1.87208 55.73 2.03266 55.8479 2.21332C55.9659 2.3739 56.0249 2.5947 56.0249 2.87573V3.81915C56.0249 4.24069 55.8676 4.46149 55.5726 4.46149C55.4153 4.46149 55.1597 4.3812 54.8254 4.22061C53.7045 3.69872 52.4459 3.43777 51.0497 3.43777C49.9288 3.43777 49.0439 3.61842 48.4343 3.99981C47.8247 4.3812 47.5101 4.96331 47.5101 5.7863C47.5101 6.34835 47.7067 6.8301 48.1 7.21148C48.4933 7.59287 49.2209 7.97426 50.2631 8.3155L53.0555 9.21878C54.4714 9.68046 55.494 10.3228 56.1036 11.1458C56.7132 11.9688 57.0082 12.9122 57.0082 13.956C57.0082 14.8191 56.8312 15.602 56.4969 16.2845C56.1429 16.9669 55.671 17.5691 55.0614 18.0509C54.4517 18.5527 53.7241 18.914 52.8786 19.175C51.9936 19.456 51.0694 19.5965 50.0665 19.5965Z" fill="#252F3E"/>
<path fill-rule="evenodd" clip-rule="evenodd" d="M53.7832 29.3519C47.3135 34.2297 37.9137 36.8191 29.8315 36.8191C18.5046 36.8191 8.29853 32.5435 0.589941 25.4377C-0.019667 24.8757 0.530947 24.1129 1.25854 24.5545C9.59641 29.4924 19.8811 32.4833 30.5197 32.4833C37.6974 32.4833 45.583 30.9578 52.8393 27.8264C53.9208 27.3246 54.8451 28.549 53.7832 29.3519Z" fill="#FF9900"/>
<path fill-rule="evenodd" clip-rule="evenodd" d="M56.4773 26.2205C55.6513 25.1366 51.0105 25.6986 48.9063 25.9596C48.277 26.0399 48.1787 25.4778 48.749 25.0563C52.446 22.4067 58.5224 23.1694 59.2303 24.0527C59.9383 24.9559 59.0337 31.1585 55.5727 34.1293C55.0417 34.591 54.5304 34.3501 54.7664 33.7479C55.553 31.7607 57.3032 27.2844 56.4773 26.2205Z" fill="#FF9900"/>
</g>
<defs>
<clipPath id="clip0_1_180">
<rect width="59.7809" height="36.5328" fill="white" transform="translate(0 0.50708)"/>
</clipPath>
</defs>
</svg>
