<svg width="76" height="40" viewBox="0 0 76 40" fill="none" xmlns="http://www.w3.org/2000/svg">
<g clip-path="url(#clip0_1_77)">
<path d="M37.1101 26.6524C37.0118 26.6255 35.4996 26.2343 33.8926 26.2343C30.85 26.2343 29.0182 27.8823 29.0182 30.3365C29.0182 32.5089 30.5506 33.5923 32.3897 34.175C32.5936 34.2425 32.8941 34.3369 33.0941 34.4033C33.9128 34.6617 34.5662 35.0455 34.5662 35.7105C34.5662 36.4541 33.811 36.9354 32.1691 36.9354C30.7263 36.9354 29.343 36.5215 29.0517 36.4478V39.4672C29.2141 39.5018 30.858 39.8256 32.6142 39.8256C35.1402 39.8256 38.0298 38.7184 38.0298 35.4224C38.0298 33.8237 37.054 32.3519 34.9116 31.6688L34.0009 31.3779C33.4576 31.2059 32.4877 30.9273 32.4877 30.1285C32.4877 29.4974 33.2063 29.0531 34.5296 29.0531C35.6714 29.0531 37.0609 29.438 37.1101 29.4534V26.6524ZM65.0057 33.0301C65.0057 34.9393 63.5479 36.4838 61.5916 36.4838C59.6333 36.4838 58.1793 34.9393 58.1793 33.0301C58.1793 31.1248 59.6333 29.5796 61.5916 29.5796C63.5479 29.5796 65.0057 31.1248 65.0057 33.0301ZM61.5916 26.2385C57.5684 26.2385 54.683 29.2824 54.683 33.0301C54.683 36.7837 57.5684 39.8256 61.5916 39.8256C65.6146 39.8256 68.5041 36.7837 68.5041 33.0301C68.5041 29.2824 65.6146 26.2385 61.5916 26.2385ZM24.5917 39.592H21.2905V26.471H24.5917" fill="#049FD9"/>
<path d="M16.7533 26.7087C16.4431 26.6164 15.2965 26.2385 13.7435 26.2385C9.72651 26.2385 6.77771 29.1115 6.77771 33.0301C6.77771 37.2578 10.0329 39.8256 13.7435 39.8256C15.2177 39.8256 16.3431 39.4753 16.7533 39.3585V35.8363C16.6115 35.9153 15.5325 36.5327 13.9802 36.5327C11.781 36.5327 10.3626 34.9802 10.3626 33.0301C10.3626 31.0206 11.8424 29.5303 13.9802 29.5303C15.5589 29.5303 16.6205 30.1613 16.7533 30.2309" fill="#049FD9"/>
<path d="M51.2077 26.7087C50.8975 26.6164 49.7509 26.2385 48.1979 26.2385C44.1809 26.2385 41.2321 29.1115 41.2321 33.0301C41.2321 37.2578 44.4872 39.8256 48.1979 39.8256C49.6721 39.8256 50.7975 39.4753 51.2077 39.3585V35.8363C51.0658 35.9153 49.9868 36.5327 48.4345 36.5327C46.2354 36.5327 44.8169 34.9802 44.8169 33.0301C44.8169 31.0206 46.2967 29.5303 48.4345 29.5303C50.0133 29.5303 51.0749 30.1613 51.2077 30.2309" fill="#049FD9"/>
<path d="M21.2808 1.66369C21.2808 0.759286 20.5444 0.0258331 19.6417 0.0258331C18.7394 0.0258331 18.003 0.759286 18.003 1.66369V19.0876C18.003 19.9972 18.7394 20.7303 19.6417 20.7303C20.5444 20.7303 21.2808 19.9972 21.2808 19.0876V1.66369ZM12.279 7.84875C12.279 6.94469 11.5429 6.21019 10.6402 6.21019C9.73757 6.21019 9.0015 6.94469 9.0015 7.84875V15.8143C9.0015 16.7236 9.73757 17.457 10.6402 17.457C11.5429 17.457 12.279 16.7236 12.279 15.8143V7.84875ZM3.27745 12.3697C3.27745 11.4653 2.54139 10.7322 1.63873 10.7322C0.737114 10.7322 0 11.4653 0 12.3697V15.8143C0 16.7236 0.737114 17.457 1.63873 17.457C2.54139 17.457 3.27745 16.7236 3.27745 15.8143" fill="#049FD9"/>
<path d="M18.0031 1.66354C18.0031 0.759133 18.7396 0.0256805 19.6422 0.0256805C20.5445 0.0256805 21.2809 0.759133 21.2809 1.66354V19.0874C21.2809 19.9971 20.5445 20.7302 19.6422 20.7302C18.7396 20.7302 18.0031 19.9971 18.0031 19.0874V1.66354ZM27.005 7.84859C27.005 6.94454 27.7411 6.21004 28.6437 6.21004C29.5464 6.21004 30.2824 6.94454 30.2824 7.84859V15.8141C30.2824 16.7234 29.5464 17.4569 28.6437 17.4569C27.7411 17.4569 27.005 16.7234 27.005 15.8141V7.84859ZM36.0065 12.3696C36.0065 11.4652 36.7425 10.7321 37.6452 10.7321C38.5468 10.7321 39.2839 11.4652 39.2839 12.3696V15.8141C39.2839 16.7234 38.5468 17.4569 37.6452 17.4569C36.7425 17.4569 36.0065 16.7234 36.0065 15.8141" fill="#049FD9"/>
<path d="M53.9989 1.66358C53.9989 0.759179 54.7353 0.0257263 55.6379 0.0257263C56.5403 0.0257263 57.2767 0.759179 57.2767 1.66358V19.0875C57.2767 19.9971 56.5403 20.7302 55.6379 20.7302C54.7353 20.7302 53.9989 19.9971 53.9989 19.0875V1.66358ZM63.0007 7.84864C63.0007 6.94458 63.7368 6.21008 64.6394 6.21008C65.5421 6.21008 66.2782 6.94458 66.2782 7.84864V15.8142C66.2782 16.7235 65.5421 17.4569 64.6394 17.4569C63.7368 17.4569 63.0007 16.7235 63.0007 15.8142V7.84864ZM72.0022 12.3696C72.0022 11.4652 72.7383 10.7321 73.6409 10.7321C74.5425 10.7321 75.2797 11.4652 75.2797 12.3696V15.8142C75.2797 16.7235 74.5425 17.4569 73.6409 17.4569C72.7383 17.4569 72.0022 16.7235 72.0022 15.8142" fill="#049FD9"/>
<path d="M57.2766 1.66354C57.2766 0.759133 56.5402 0.0256805 55.6376 0.0256805C54.7353 0.0256805 53.9988 0.759133 53.9988 1.66354V19.0874C53.9988 19.9971 54.7353 20.7302 55.6376 20.7302C56.5402 20.7302 57.2766 19.9971 57.2766 19.0874V1.66354ZM48.2748 7.84859C48.2748 6.94454 47.5387 6.21004 46.6361 6.21004C45.7334 6.21004 44.9973 6.94454 44.9973 7.84859V15.8141C44.9973 16.7234 45.7334 17.4569 46.6361 17.4569C47.5387 17.4569 48.2748 16.7234 48.2748 15.8141V7.84859ZM39.2733 12.3696C39.2733 11.4652 38.5372 10.7321 37.6346 10.7321C36.733 10.7321 35.9958 11.4652 35.9958 12.3696V15.8141C35.9958 16.7234 36.733 17.4569 37.6346 17.4569C38.5372 17.4569 39.2733 16.7234 39.2733 15.8141" fill="#049FD9"/>
</g>
<defs>
<clipPath id="clip0_1_77">
<rect width="75.2797" height="39.854" fill="white"/>
</clipPath>
</defs>
</svg>
