<svg width="137" height="23" viewBox="0 0 137 23" fill="none" xmlns="http://www.w3.org/2000/svg">
<g clip-path="url(#clip0_1_87)">
<path fill-rule="evenodd" clip-rule="evenodd" d="M134.014 10.3704C133.147 10.3704 132.375 9.84534 132.049 9.03146C131.715 8.21758 131.895 7.28993 132.504 6.66858C133.113 6.04723 134.031 5.86345 134.829 6.196C135.627 6.52856 136.142 7.32494 136.142 8.20008C136.142 8.48887 136.09 8.76892 135.979 9.03146C135.876 9.294 135.713 9.53029 135.516 9.73158C135.318 9.94161 135.087 10.0991 134.829 10.2042C134.572 10.3179 134.289 10.3704 134.014 10.3704ZM134.014 6.25726C133.242 6.24851 132.538 6.71234 132.238 7.4387C131.929 8.16507 132.092 9.00521 132.633 9.5653C133.173 10.1254 133.997 10.2917 134.718 9.99412C135.43 9.69657 135.893 8.98771 135.893 8.20008C135.893 7.94629 135.85 7.6925 135.756 7.46496C135.661 7.22867 135.516 7.00988 135.344 6.83486C135.172 6.65108 134.966 6.51105 134.735 6.41479C134.503 6.30977 134.263 6.25726 134.014 6.25726ZM134.58 9.33776L133.997 8.36635H133.619V9.33776H133.353V6.99238H134.108C134.194 6.99238 134.289 7.00113 134.374 7.03614C134.469 7.07115 134.546 7.1149 134.615 7.18491C134.683 7.24617 134.735 7.32494 134.778 7.41245C134.812 7.49996 134.838 7.58748 134.838 7.68374C134.838 7.76542 134.823 7.84127 134.795 7.91128C134.772 7.98713 134.735 8.05422 134.683 8.11256C134.638 8.17091 134.58 8.2205 134.512 8.26134C134.443 8.30218 134.372 8.32843 134.297 8.3401L134.898 9.33776H134.58ZM134.066 7.25492H133.602V8.11256H134.066C134.186 8.13007 134.314 8.09506 134.4 8.00755C134.495 7.92878 134.555 7.80626 134.555 7.68374C134.555 7.56122 134.495 7.4387 134.4 7.35119C134.314 7.27243 134.186 7.23742 134.066 7.25492ZM103.795 6.86111V9.16273C103.795 9.28525 103.82 9.59155 103.554 9.59155C103.28 9.59155 103.228 9.48654 102.791 8.55889C102.508 7.93754 101.958 7.05364 98.8953 6.96613C98.1831 7.00113 98.1059 7.14116 98.1059 7.78876V19.2006C98.1059 20.2245 98.1059 20.8984 99.3329 20.9771C99.8477 20.9946 100.191 21.0209 100.191 21.3972C100.191 21.7735 99.8734 21.7735 99.6761 21.7735C98.8696 21.7735 97.5911 21.6685 96.776 21.6685C96.3642 21.6685 94.3735 21.7735 93.9102 21.7735C93.7129 21.7735 93.3954 21.7473 93.3954 21.3972C93.3954 21.0472 93.73 21.0209 94.2448 20.9771C95.4804 20.8984 95.4804 20.2245 95.4804 19.2444V7.61373C95.4804 7.05364 95.3345 6.97488 94.9827 6.96613C91.645 6.99238 91.0702 7.92003 90.7784 8.55889C90.3409 9.48654 90.2636 9.59155 90.0234 9.59155C89.7746 9.59155 89.7746 9.28525 89.7746 9.16273V6.86111C89.7746 6.28352 89.7746 6.08223 90.0663 6.08223C90.1435 6.08223 90.1435 6.10849 90.8042 6.13474C91.4649 6.161 92.7176 6.18725 95.2487 6.18725H98.3204C100.852 6.18725 102.121 6.161 102.765 6.13474C103.408 6.10849 103.426 6.08223 103.503 6.08223C103.795 6.08223 103.795 6.28352 103.795 6.86111ZM77.2732 18.1679C77.2732 18.4917 76.9986 20.0933 76.9214 21.0209C76.9043 21.5022 76.6554 21.7735 75.9433 21.7735C74.6906 21.7735 72.9574 21.7473 71.5502 21.721C70.1517 21.6948 69.0019 21.6773 68.8475 21.6773H68.5557C67.5519 21.6773 66.9341 21.6948 66.548 21.721C66.1533 21.7473 65.9731 21.7735 65.7843 21.7735C65.587 21.7735 65.2695 21.7473 65.2695 21.3972C65.2695 21.0472 65.6385 21.0209 66.1533 20.9771C67.3803 20.8984 67.3803 20.2245 67.3803 19.2006V8.63765C67.3803 7.60498 67.3803 6.93112 66.1533 6.86111C65.6127 6.83486 65.2695 6.7911 65.2695 6.43229C65.2695 6.08223 65.587 6.08223 65.7586 6.08223C65.8101 6.08807 65.8616 6.0939 65.913 6.09974C65.9645 6.10557 66.016 6.11141 66.0675 6.11724C66.119 6.12308 66.1704 6.12599 66.2219 6.12599C66.2734 6.12599 66.3249 6.12891 66.3764 6.13474C66.9083 6.161 67.9637 6.18725 70.0573 6.18725H71.2242C73.7553 6.18725 75.0252 6.161 75.6687 6.13474C76.3037 6.10849 76.3294 6.08223 76.4066 6.08223C76.6983 6.08223 76.6983 6.28352 76.6983 6.86111V9.17148C76.6983 9.29401 76.7241 9.59155 76.4495 9.59155C76.1835 9.59155 76.132 9.49529 75.6945 8.56764C75.3942 7.91128 74.8021 6.96613 71.3186 6.96613C70.0916 6.96613 69.9972 7.13241 69.9972 8.38386V12.0157C69.9972 12.8208 69.9972 13.0221 71.4215 13.0221C74.1414 13.0221 74.3645 12.4708 74.8021 11.1406C74.9308 10.8168 75.0252 10.7642 75.1711 10.7642C75.3169 10.7642 75.4456 10.843 75.4456 11.1231C75.4456 11.4644 75.274 14.046 75.274 14.5974C75.274 14.7724 75.3427 15.6475 75.3427 15.8488C75.3427 15.9976 75.3427 16.3476 75.0509 16.3476C74.8536 16.3476 74.7077 16.2164 74.5876 15.7438C74.0728 13.8185 73.3864 13.7922 71.37 13.7922C70.1946 13.7922 69.9972 13.7922 69.9972 14.5449V18.8418C69.9972 20.6271 70.512 20.8984 72.5713 20.8984C73.6524 20.8984 75.1796 20.8984 76.2522 18.7718C76.6983 17.8966 76.7327 17.7916 76.9643 17.7916C77.1874 17.7916 77.2646 18.0192 77.2732 18.1679ZM117.326 18.1679C117.326 18.4917 117.06 20.0933 116.982 21.0209C116.957 21.5022 116.716 21.7735 116.004 21.7735C114.752 21.7735 113.01 21.7473 111.611 21.721C110.213 21.6948 109.054 21.6773 108.908 21.6773H108.617C107.613 21.6773 106.995 21.6948 106.6 21.721C106.206 21.7473 106.034 21.7735 105.837 21.7735C105.648 21.7735 105.322 21.7473 105.322 21.3972C105.322 21.0472 105.691 21.0209 106.206 20.9771C107.433 20.8984 107.433 20.2245 107.433 19.2006V8.63765C107.433 7.60498 107.433 6.93112 106.206 6.86111C105.674 6.83486 105.322 6.7911 105.322 6.43229C105.322 6.08223 105.648 6.08223 105.82 6.08223C105.871 6.08807 105.922 6.0939 105.974 6.09974C106.02 6.10557 106.068 6.11141 106.12 6.11724C106.171 6.12308 106.223 6.12599 106.274 6.12599C106.326 6.12599 106.377 6.12891 106.429 6.13474C106.969 6.161 108.025 6.18725 110.11 6.18725H111.285C113.816 6.18725 115.095 6.161 115.73 6.13474C116.373 6.10849 116.39 6.08223 116.468 6.08223C116.759 6.08223 116.759 6.28352 116.759 6.86111V9.17148C116.759 9.29401 116.785 9.59155 116.519 9.59155C116.244 9.59155 116.202 9.49529 115.755 8.56764C115.455 7.91128 114.863 6.96613 111.388 6.96613C110.161 6.96613 110.058 7.13241 110.058 8.38386V12.0157C110.058 12.8208 110.058 13.0221 111.482 13.0221C114.211 13.0221 114.425 12.4708 114.872 11.1406C114.992 10.8168 115.095 10.7642 115.241 10.7642C115.386 10.7642 115.507 10.843 115.507 11.1231C115.507 11.4644 115.335 14.046 115.335 14.5974C115.335 14.7724 115.412 15.6475 115.412 15.8488C115.412 15.9976 115.412 16.3476 115.112 16.3476C114.923 16.3476 114.777 16.2164 114.649 15.7438C114.134 13.8185 113.447 13.7922 111.431 13.7922C110.255 13.7922 110.058 13.7922 110.058 14.5449V18.8418C110.058 20.6271 110.573 20.8984 112.641 20.8984C113.722 20.8984 115.241 20.8984 116.322 18.7718C116.759 17.8966 116.802 17.7916 117.034 17.7916C117.248 17.7916 117.326 18.0192 117.326 18.1679ZM88.7449 16.8815C88.7449 19.7169 86.6857 22.0886 83.3566 22.0886C81.4003 22.0886 80.1647 21.5985 79.7186 21.2659C79.444 21.0647 79.341 20.5483 79.2724 19.9095C79.2495 19.7169 79.2295 19.5215 79.2123 19.3231C79.1952 19.1306 79.1837 18.9352 79.178 18.7368C79.1666 18.5443 79.158 18.3488 79.1523 18.1504C79.1466 17.9579 79.1437 17.7625 79.1437 17.5641C79.1437 17.4678 79.1609 17.109 79.4612 17.109C79.6842 17.109 79.7186 17.3628 79.7701 17.5991C80.2505 19.822 81.9666 21.3535 83.7427 21.3535C84.7809 21.3535 86.7543 20.6533 86.7543 18.588C86.7543 16.5927 85.0555 15.63 83.2536 14.7811C81.2287 13.8622 79.2467 12.8733 79.2467 10.1604C79.2467 7.81502 80.997 5.77594 84.1803 5.77594C85.6389 5.77594 87.1147 6.1785 87.4579 6.36228C87.7582 6.53731 87.7582 6.7736 87.7582 9.01396C87.7582 9.57405 87.7582 9.78408 87.4064 9.78408C87.1576 9.78408 87.0632 9.62656 86.8058 8.83893C86.5055 7.83252 86.0679 6.44104 83.9829 6.41479C82.0352 6.39729 81.2458 7.84127 81.2458 8.83893C81.2458 10.6505 82.7045 11.2893 84.7037 12.1295C86.1108 12.7421 88.7364 13.9935 88.7449 16.8815ZM33.9604 13.661C33.9604 18.6143 29.8419 22.0886 25.6205 22.0886C21.2789 22.0886 17.2548 18.763 17.2548 13.8885C17.2548 9.294 20.8756 5.77594 25.6977 5.77594C30.3396 5.77594 33.9604 9.26775 33.9604 13.661ZM31.0517 13.766C31.0517 10.7292 29.2928 6.47605 25.406 6.47605C22.3686 6.47605 20.1549 9.74908 20.1549 13.3547C20.1549 17.4678 22.5144 21.3797 25.8178 21.3797C29.2413 21.3797 31.0517 17.4503 31.0517 13.766ZM16.2852 0.647605V4.48073C16.2852 4.59449 16.2852 5.17209 15.8991 5.17209C15.5044 5.17209 15.3671 4.74327 15.2384 4.44572C14.1745 2.03908 13.7197 1.26896 8.19408 1.26896C6.99286 1.26896 6.39224 1.33897 6.39224 3.03674V8.09506C6.39224 10.0466 6.48663 10.0816 6.95854 10.1604C7.49051 10.2304 9.59266 10.2304 10.1246 10.2304C12.9904 10.2304 13.5052 9.43403 13.96 7.55247C14.0286 7.26368 14.2088 6.94862 14.5263 6.97488C14.8437 6.99238 14.9467 7.22867 14.9467 7.58748C14.9467 8.09506 14.8437 10.5542 14.8437 11.0968C14.8437 11.4206 14.8437 12.0332 14.9124 12.8646L15.0582 14.5711C15.0582 14.8161 15.0497 15.2275 14.6292 15.2537C14.2603 15.2712 14.123 14.8599 14.0629 14.6761C13.9771 14.4223 13.7455 13.4859 13.6768 13.3022C13.1792 11.3506 10.9054 11.3506 10.0217 11.3506C8.97488 11.3506 7.34465 11.3506 6.96712 11.4556C6.38366 11.6131 6.38366 12.0244 6.38366 13.0484V18.5968C6.38366 19.8657 6.38366 20.6971 7.89378 20.7846C8.52871 20.8109 8.95772 20.8546 8.95772 21.3185C8.95772 21.7735 8.55445 21.7735 8.32279 21.7735C7.32748 21.7735 5.70583 21.651 4.70195 21.651C4.19571 21.651 1.6903 21.7735 1.11543 21.7735C0.8666 21.7735 0.480491 21.7473 0.480491 21.3185C0.480491 20.8809 0.90092 20.8546 1.53585 20.7934C3.04597 20.6971 3.04597 19.8657 3.04597 18.6668V3.6931C3.04597 2.20536 3.04597 1.23395 1.26987 1.12018C0.531972 1.05017 0 1.01516 0 0.507582C0 0 0.46333 0 0.703576 0C0.789378 0.0116686 0.87232 0.02042 0.952401 0.0262543C1.0382 0.0379228 1.12115 0.0466742 1.20123 0.0525085C1.28703 0.0583428 1.36997 0.0612599 1.45005 0.0612599C1.53585 0.0670942 1.6188 0.0700113 1.69888 0.0700113C2.62554 0.105017 3.90399 0.140023 7.42187 0.140023H8.19408C11.875 0.140023 13.7283 0.105017 14.655 0.0700113C14.7408 0.0700113 14.8266 0.0700113 14.9124 0.0700113C14.9982 0.0641771 15.084 0.0583428 15.1698 0.0525085C15.2556 0.0466742 15.3414 0.0408399 15.4272 0.0350057C15.513 0.0233371 15.5988 0.0116686 15.6846 0C16.2509 0 16.2852 0.18378 16.2852 0.647605ZM48.9243 21.476C48.9243 21.7298 48.6754 21.7735 48.5038 21.7735H45.2691C44.8315 21.7735 44.7285 21.546 44.4626 21.0209L41.4852 15.3412C40.9447 14.2561 40.8246 14.151 39.7177 14.151C39.3059 14.151 39.2544 14.3086 39.2544 14.7286V19.2269C39.2544 20.277 39.2544 20.9509 40.4813 21.0209C41.0219 21.0472 41.3651 21.0997 41.3651 21.4497C41.3651 21.7998 41.0476 21.7735 40.8503 21.7735C40.387 21.7735 38.0017 21.6773 37.9073 21.6773C37.4869 21.6773 35.5048 21.7735 35.0587 21.7735C34.8613 21.7735 34.5439 21.7735 34.5439 21.4235C34.5439 21.0734 34.9128 21.0472 35.4276 21.0209C36.6288 20.9246 36.6288 20.2683 36.6288 19.2181V8.61139C36.6288 7.58748 36.6288 6.91362 35.4276 6.83486C34.8871 6.8086 34.5439 6.7911 34.5439 6.44104C34.5439 6.08223 34.6468 6.08223 35.4534 6.08223C35.7022 6.08223 36.9034 6.18725 37.1951 6.18725C37.8558 6.18725 41.1249 6.08223 41.8628 6.08223C46.2043 6.08223 46.5733 9.13648 46.5733 10.0116C46.5733 12.9433 44.0421 13.5472 43.2099 13.7222C43.5273 13.9148 43.819 14.0635 44.3853 15.1137L46.7706 19.4194C47.2597 20.2945 47.5943 20.9159 48.2893 21.0209C48.8041 21.0997 48.9243 21.2134 48.9243 21.476ZM43.8019 10.3617C43.8019 9.46028 43.4587 6.78235 40.4127 6.78235C39.2801 6.78235 39.2544 7.3862 39.2544 8.3576V12.567C39.2544 13.4422 39.2544 13.4947 40.4813 13.4947C41.3651 13.4947 43.8019 13.4947 43.8019 10.3617ZM64.3171 21.476C64.3171 21.7298 64.0769 21.7735 63.9053 21.7735H60.6705C60.2244 21.7735 60.13 21.546 59.8554 21.0209L56.8867 15.3412C56.3461 14.2561 56.226 14.151 55.1192 14.151C54.7073 14.151 54.6558 14.3086 54.6558 14.7286V19.2269C54.6558 20.277 54.6558 20.9509 55.8828 21.0209C56.4233 21.0472 56.7666 21.0997 56.7666 21.4497C56.7666 21.7998 56.4491 21.7735 56.2517 21.7735C55.7884 21.7735 53.4031 21.6773 53.3087 21.6773C52.8883 21.6773 50.8977 21.7735 50.4601 21.7735C50.2628 21.7735 49.9453 21.7735 49.9453 21.4235C49.9453 21.0734 50.3143 21.0472 50.8291 21.0209C52.0303 20.9246 52.0303 20.2683 52.0303 19.2181V8.61139C52.0303 7.58748 52.0303 6.91362 50.8291 6.83486C50.2885 6.8086 49.9453 6.7911 49.9453 6.44104C49.9453 6.08223 50.0397 6.08223 50.8548 6.08223C51.0951 6.08223 52.2963 6.18725 52.5966 6.18725C53.2573 6.18725 56.5177 6.08223 57.2556 6.08223C61.5972 6.08223 61.9662 9.13648 61.9662 10.0116C61.9662 12.9433 59.4436 13.5472 58.6027 13.7222C58.9288 13.9148 59.2205 14.0635 59.7868 15.1137L62.1635 19.4194C62.6526 20.2945 62.9872 20.9159 63.6822 21.0209C64.197 21.0997 64.3171 21.2134 64.3171 21.476ZM59.2033 10.3617C59.2033 9.46028 58.8601 6.78235 55.8142 6.78235C54.6816 6.78235 54.6558 7.3862 54.6558 8.3576V12.567C54.6558 13.4422 54.6558 13.4947 55.8828 13.4947C56.7666 13.4947 59.1948 13.4947 59.2033 10.3617ZM133.079 21.476C133.079 21.7298 132.839 21.7735 132.667 21.7735H129.432C128.986 21.7735 128.892 21.546 128.626 21.0209L125.64 15.3325C125.099 14.2561 124.979 14.151 123.872 14.151C123.46 14.151 123.409 14.2998 123.409 14.7286V19.2181C123.409 20.2683 123.409 20.9509 124.653 21.0209C125.185 21.0472 125.537 21.0997 125.537 21.4497C125.537 21.7998 125.211 21.7735 125.022 21.7735C124.55 21.7735 122.173 21.6773 122.07 21.6773C121.659 21.6773 119.668 21.7735 119.222 21.7735C119.033 21.7735 118.707 21.7735 118.707 21.4235C118.707 21.0734 119.076 21.0472 119.591 21.0209C120.792 20.9246 120.792 20.2683 120.792 19.2181V8.61139C120.792 7.58748 120.792 6.91362 119.591 6.83486C119.059 6.8086 118.707 6.7911 118.707 6.44104C118.707 6.08223 118.81 6.08223 119.616 6.08223C119.865 6.08223 121.067 6.18725 121.358 6.18725C122.028 6.18725 125.288 6.08223 126.026 6.08223C130.367 6.08223 130.736 9.13648 130.736 10.0116C130.736 12.9433 128.205 13.5472 127.373 13.7222C127.69 13.9148 127.991 14.0635 128.557 15.1137L130.934 19.4194C131.423 20.2945 131.757 20.9159 132.452 21.0209C132.967 21.0997 133.079 21.2134 133.079 21.476ZM127.965 10.3617C127.965 9.46028 127.622 6.78235 124.576 6.78235C123.443 6.78235 123.417 7.3862 123.417 8.3576V12.567C123.417 13.4422 123.417 13.4947 124.644 13.4947C125.528 13.4947 127.956 13.4947 127.965 10.3617Z" fill="black"/>
</g>
<defs>
<clipPath id="clip0_1_87">
<rect width="136.168" height="22.1411" fill="white"/>
</clipPath>
</defs>
</svg>
