<svg width="48" height="48" viewBox="0 0 48 48" fill="none" xmlns="http://www.w3.org/2000/svg">
<g clip-path="url(#clip0_1_193)">
<path d="M47.0223 23.5345C47.0223 10.5622 36.507 0.046936 23.5347 0.046936C23.181 0.046936 22.8291 0.0558662 22.479 0.0719452L17.6746 13.2765H21.8591C24.3484 13.2765 25.6899 15.1932 24.8378 17.5342L18.9117 33.8202L13.9358 33.8193L20.2952 16.3633H16.5537L10.1944 33.8193H5.21676L12.6943 13.2765L17.1932 0.9142C7.30231 3.68123 0.0471191 12.7603 0.0471191 23.5345C0.0471191 34.6285 7.73996 43.9255 18.0819 46.3844L22.4406 34.4061H22.4441L30.1334 13.2765H39.2982C41.7901 13.2765 43.1308 15.1932 42.2787 17.5342L37.0715 31.8383C36.675 32.9279 35.4022 33.8193 34.2429 33.8193H27.637L22.8371 47.0114C23.0685 47.0176 23.3016 47.0221 23.5347 47.0221C36.507 47.0221 47.0223 36.506 47.0223 23.5345Z" fill="#0096D6"/>
<path d="M37.7467 16.3509H34.0071L28.7695 30.7211H32.5092L37.7467 16.3509Z" fill="#0096D6"/>
</g>
<defs>
<clipPath id="clip0_1_193">
<rect width="47.0693" height="47.0693" fill="white"/>
</clipPath>
</defs>
</svg>
