<svg width="63" height="25" viewBox="0 0 63 25" fill="none" xmlns="http://www.w3.org/2000/svg">
<g clip-path="url(#clip0_1_137)">
<path d="M-6.10352e-05 23.1471H12.1588V24.8733H-6.10352e-05V23.1471Z" fill="#1F70C1"/>
<path d="M-6.10352e-05 19.8361H12.1588V21.5684H-6.10352e-05V19.8361Z" fill="#1F70C1"/>
<path d="M3.46869 16.531H8.68404V18.2634H3.46869V16.531Z" fill="#1F70C1"/>
<path d="M3.46869 13.2261H8.68404V14.9584H3.46869V13.2261Z" fill="#1F70C1"/>
<path d="M3.46869 9.92114H8.68404V11.6535H3.46869V9.92114Z" fill="#1F70C1"/>
<path d="M3.46869 6.61H8.68404V8.34236H3.46869V6.61Z" fill="#1F70C1"/>
<path d="M12.1588 3.30507H-6.10352e-05V5.03743H12.1588V3.30507Z" fill="#1F70C1"/>
<path d="M12.1589 0H0V1.73236H12.1589V0Z" fill="#1F70C1"/>
<path d="M13.6131 21.5684H32.3129C32.6287 21.034 32.8641 20.4504 33.0066 19.8361H13.6131V21.5684Z" fill="#1F70C1"/>
<path d="M30.8573 13.2261H17.088V14.9584H32.313C31.9165 14.295 31.4271 13.7114 30.8573 13.2261Z" fill="#1F70C1"/>
<path d="M17.088 9.92116V11.6535H30.8573C31.4396 11.1682 31.9289 10.5846 32.313 9.92116H17.088Z" fill="#1F70C1"/>
<path d="M32.3129 3.30508H13.6131V5.03744H33.0066C32.8456 4.42313 32.6102 3.83958 32.3129 3.30508Z" fill="#1F70C1"/>
<path d="M26.5648 1.52588e-05H13.6131V1.73237H31.0307C29.8662 0.663449 28.2868 1.52588e-05 26.5648 1.52588e-05Z" fill="#1F70C1"/>
<path d="M22.2972 6.61002H17.088V8.34237H22.2972V6.61002Z" fill="#1F70C1"/>
<path d="M27.5125 8.34237H32.9632C33.1181 7.78952 33.1986 7.20591 33.1986 6.61002H27.5125V8.34237Z" fill="#1F70C1"/>
<path d="M17.088 16.531H22.2972V18.2634H17.088V16.531Z" fill="#1F70C1"/>
<path d="M27.5125 16.531V18.2634H33.1986C33.1986 17.6675 33.1181 17.0839 32.9632 16.531H27.5125Z" fill="#1F70C1"/>
<path d="M13.6131 24.861L26.5648 24.8795C28.2992 24.8795 29.8662 24.216 31.0369 23.1471H13.6131V24.861Z" fill="#1F70C1"/>
<path d="M34.653 23.1471H43.3369V24.8733H34.653V23.1471Z" fill="#1F70C1"/>
<path d="M34.653 19.8361H43.3369V21.5684H34.653V19.8361Z" fill="#1F70C1"/>
<path d="M38.1216 16.531H43.3369V18.2634H38.1216V16.531Z" fill="#1F70C1"/>
<path d="M38.1216 13.2261H43.3369V14.9584H38.1216V13.2261Z" fill="#1F70C1"/>
<path d="M45.7527 3.30508H34.653V5.03744H46.3534L45.7527 3.30508Z" fill="#1F70C1"/>
<path d="M44.6005 1.52588e-05H34.653V1.73237H45.2013L44.6005 1.52588e-05Z" fill="#1F70C1"/>
<path d="M53.7553 23.1471H62.4455V24.8733H53.7553V23.1471Z" fill="#1F70C1"/>
<path d="M53.7553 19.8361H62.4455V21.5684H53.7553V19.8361Z" fill="#1F70C1"/>
<path d="M53.7553 16.531H58.9707V18.2634H53.7553V16.531Z" fill="#1F70C1"/>
<path d="M53.7553 13.2261H58.9707V14.9584H53.7553V13.2261Z" fill="#1F70C1"/>
<path d="M53.7553 11.6535H58.9707V9.92116H53.7553H49.0355L48.5462 11.3218L48.0568 9.92116H43.3369H38.1216V11.6535H43.3369V10.0624L43.8882 11.6535H53.2041L53.7553 10.0624V11.6535Z" fill="#1F70C1"/>
<path d="M58.9707 6.61002H50.1876L49.5867 8.34237H58.9707V6.61002Z" fill="#1F70C1"/>
<path d="M52.4979 3.05176e-05L51.897 1.73239H62.4455V3.05176e-05H52.4979Z" fill="#1F70C1"/>
<path d="M48.5461 24.861L49.1469 23.1471H47.9453L48.5461 24.861Z" fill="#1F70C1"/>
<path d="M47.3941 21.5684H49.6983L50.3177 19.8361H46.7809L47.3941 21.5684Z" fill="#1F70C1"/>
<path d="M46.2233 18.2634H50.8689L51.4821 16.531H45.6101L46.2233 18.2634Z" fill="#1F70C1"/>
<path d="M45.0589 14.9584H52.0396L52.6342 13.2261H44.4581L45.0589 14.9584Z" fill="#1F70C1"/>
<path d="M38.1216 8.34237H47.5055L46.9047 6.61002H38.1216V8.34237Z" fill="#1F70C1"/>
<path d="M50.745 5.03744H62.4455V3.30508H51.3396L50.745 5.03744Z" fill="#1F70C1"/>
</g>
<defs>
<clipPath id="clip0_1_137">
<rect width="62.5349" height="24.8795" fill="white"/>
</clipPath>
</defs>
</svg>
