<svg width="64" height="25" viewBox="0 0 64 25" fill="none" xmlns="http://www.w3.org/2000/svg">
<g clip-path="url(#clip0_1_94)">
<path d="M4.60774 0.347359H0V4.995H4.60774V0.347359Z" fill="#04C7FD"/>
<path d="M4.493 24.5614V7.82327H0.131226V24.5614H4.493ZM33.484 24.7268V20.625C32.8445 20.625 32.3034 20.5919 31.9098 20.5257C31.4507 20.4596 31.1064 20.2942 30.8768 20.0626C30.6472 19.8311 30.4996 19.5003 30.4177 19.0702C30.3521 18.6567 30.3193 18.1109 30.3193 17.4493V11.5943H33.484V7.82327H30.3193V1.29011H25.9411V17.4824C25.9411 18.8552 26.0559 20.013 26.2855 20.9392C26.515 21.8489 26.9086 22.5932 27.4497 23.1555C27.9908 23.7179 28.7123 24.1148 29.5814 24.3629C30.4668 24.611 31.5819 24.7268 32.9101 24.7268H33.484ZM58.5396 24.5614V1.52588e-05H54.1614V24.5614H58.5396ZM21.7269 9.4607C20.5135 8.13752 18.8081 7.47594 16.6436 7.47594C15.5942 7.47594 14.6431 7.69095 13.7741 8.12098C12.9214 8.55102 12.1835 9.14644 11.6096 9.90727L11.3636 10.2215V9.94035V7.82327H7.05103V24.5614H11.3964V15.6465V16.2585C11.3964 16.1593 11.3964 16.06 11.3964 15.9608C11.4456 14.3895 11.8227 13.2317 12.5442 12.4875C13.3149 11.6936 14.2496 11.2966 15.3154 11.2966C16.5781 11.2966 17.5455 11.6936 18.185 12.4544C18.8081 13.2152 19.1361 14.2903 19.1361 15.6631V15.6961V24.5449H23.547V15.0511C23.5634 12.6694 22.9403 10.7839 21.7269 9.4607ZM51.8986 16.1593C51.8986 14.9519 51.6854 13.8272 51.2755 12.7686C50.8491 11.7266 50.2588 10.8004 49.5209 10.0065C48.7666 9.2126 47.8647 8.60063 46.8153 8.15406C45.7658 7.70749 44.6016 7.49248 43.339 7.49248C42.142 7.49248 41.0105 7.72403 39.9611 8.1706C38.9116 8.63371 37.9934 9.24568 37.2227 10.023C36.452 10.8004 35.8289 11.7266 35.3861 12.7852C34.927 13.8437 34.7138 14.9849 34.7138 16.1923C34.7138 17.3997 34.927 18.541 35.3533 19.5995C35.7797 20.658 36.3864 21.5843 37.1407 22.3616C37.895 23.139 38.8296 23.7675 39.9119 24.2141C40.9941 24.6772 42.1912 24.9087 43.4702 24.9087C47.176 24.9087 49.4717 23.2051 50.8491 21.6173L47.7008 19.2026C47.0449 19.9965 45.4707 21.0715 43.503 21.0715C42.2731 21.0715 41.2565 20.7904 40.4858 20.2115C39.7151 19.6491 39.1904 18.8552 38.9116 17.8794L38.8624 17.7305H51.8986V16.1593ZM38.8952 14.6211C38.8952 13.3971 40.289 11.2635 43.2898 11.247C46.2906 11.247 47.7008 13.3806 47.7008 14.6045L38.8952 14.6211Z" fill="#0068B5"/>
<path d="M63.5245 22.3782C63.4425 22.1797 63.3277 22.0143 63.1801 21.8654C63.0325 21.7166 62.8686 21.6008 62.6718 21.5181C62.475 21.4354 62.2618 21.3858 62.0487 21.3858C61.8191 21.3858 61.6223 21.4354 61.4256 21.5181C61.2288 21.6008 61.0648 21.7166 60.9172 21.8654C60.7697 22.0143 60.6549 22.1797 60.5729 22.3782C60.4909 22.5766 60.4417 22.7916 60.4417 23.0067C60.4417 23.2382 60.4909 23.4367 60.5729 23.6352C60.6549 23.8336 60.7697 23.999 60.9172 24.1479C61.0648 24.2968 61.2288 24.4125 61.4256 24.4952C61.6223 24.5779 61.8355 24.6275 62.0487 24.6275C62.2782 24.6275 62.475 24.5779 62.6718 24.4952C62.8686 24.4125 63.0325 24.2968 63.1801 24.1479C63.3277 23.999 63.4425 23.8336 63.5245 23.6352C63.6065 23.4367 63.6556 23.2217 63.6556 23.0067C63.6556 22.7916 63.6065 22.5766 63.5245 22.3782ZM63.2621 23.5359C63.1965 23.7013 63.0981 23.8502 62.9833 23.966C62.8686 24.0817 62.721 24.181 62.557 24.2471C62.393 24.3133 62.2291 24.3464 62.0323 24.3464C61.8519 24.3464 61.6715 24.3133 61.5076 24.2471C61.3436 24.181 61.196 24.0817 61.0812 23.966C60.9664 23.8502 60.868 23.7013 60.8025 23.5359C60.7369 23.3705 60.7041 23.2051 60.7041 23.0067C60.7041 22.8247 60.7369 22.6428 60.8025 22.4774C60.868 22.312 60.9664 22.1631 61.0812 22.0474C61.196 21.9316 61.3436 21.8323 61.5076 21.7662C61.6715 21.7 61.8355 21.6669 62.0323 21.6669C62.2127 21.6669 62.393 21.7 62.557 21.7662C62.721 21.8323 62.8686 21.9316 62.9833 22.0474C63.0981 22.1631 63.1965 22.312 63.2621 22.4774C63.3277 22.6428 63.3605 22.8082 63.3605 23.0067C63.3769 23.2051 63.3277 23.3705 63.2621 23.5359ZM62.3438 23.139C62.475 23.1224 62.5734 23.0728 62.6554 22.9901C62.7374 22.9074 62.7866 22.7916 62.7866 22.6262C62.7866 22.4443 62.7374 22.312 62.6226 22.2128C62.5242 22.1135 62.3438 22.0639 62.1307 22.0639H61.4092V23.9329H61.7535V23.1721H61.9995L62.4586 23.9329H62.8194L62.3438 23.139ZM62.1635 22.8743C62.1143 22.8743 62.0651 22.8743 61.9995 22.8743H61.7535V22.3451H61.9995C62.0487 22.3451 62.0979 22.3451 62.1635 22.3451C62.2127 22.3451 62.2618 22.3616 62.311 22.3782C62.3602 22.3947 62.393 22.4278 62.4094 22.4609C62.4258 22.4939 62.4422 22.5435 62.4422 22.6097C62.4422 22.6759 62.4258 22.7255 62.4094 22.7586C62.3766 22.7916 62.3438 22.8247 62.311 22.8413C62.2618 22.8578 62.2127 22.8743 62.1635 22.8743Z" fill="#0068B5"/>
</g>
<defs>
<clipPath id="clip0_1_94">
<rect width="63.6556" height="24.9087" fill="white"/>
</clipPath>
</defs>
</svg>
