<svg width="90" height="30" viewBox="0 0 90 30" fill="none" xmlns="http://www.w3.org/2000/svg">
<path d="M0.00341797 -0.000104904V29.507H90.0001V-0.000104904H0.00341797Z" fill="#E42022"/>
<mask id="mask0_1_117" style="mask-type:luminance" maskUnits="userSpaceOnUse" x="0" y="0" width="90" height="30">
<path d="M0 -5.14984e-05V29.507H89.9998V-5.14984e-05H0Z" fill="white"/>
</mask>
<g mask="url(#mask0_1_117)">
<path d="M39.2086 9.94443C37.8797 9.94443 36.3678 10.5506 35.4436 11.7639L35.4445 11.7617L35.4436 11.7625L35.4445 10.1348H32.2737V21.4915H35.4436V15.0299C35.4436 13.8666 36.3603 12.6303 38.0577 12.6303C39.3699 12.6303 40.7271 13.5277 40.7271 15.0299V21.4915H43.8979V14.4515C43.8979 11.8399 41.9981 9.94443 39.2086 9.94443Z" fill="white"/>
<path d="M66.4322 10.1355L63.5658 17.8716L60.6994 10.1355H57.078L61.8287 21.4879H65.3025L70.0536 10.1355H66.4322Z" fill="white"/>
<path d="M22.8082 13.5569C23.3481 12.8438 24.2083 12.4254 25.247 12.4254C26.3899 12.4254 27.2567 13.0672 27.7043 14.014L22.1654 16.2745C22.0139 15.1147 22.3156 14.2074 22.8082 13.5569ZM28.8998 18.0001C27.5651 18.9713 26.8025 19.2033 25.5858 19.2033C24.4906 19.2033 23.6335 18.8692 23.0287 18.2825L31.1344 14.9748C30.9577 13.7425 30.4823 12.6418 29.7502 11.8044C28.685 10.5877 27.1087 9.94413 25.19 9.94413C21.7033 9.94413 19.0746 12.474 19.0746 15.8148C19.0746 19.2424 21.7095 21.685 25.539 21.685C27.6844 21.685 29.8783 20.6847 30.9042 19.5162L28.8998 18.0001Z" fill="white"/>
<path d="M18.7723 18.6282H11.5661V6.73875H8.35242V21.4914H18.7723V18.6282Z" fill="white"/>
<path d="M75.7466 12.6164C73.9758 12.6164 72.6906 13.9361 72.6906 15.8138C72.6906 17.6062 74.0523 19.0111 75.7894 19.0111C77.5601 19.0111 78.8453 17.6549 78.8453 15.8138C78.8453 14.0208 77.4842 12.6164 75.7466 12.6164ZM75.7466 21.6831C72.2789 21.6831 69.5623 19.1423 69.5623 15.8138C69.5623 12.5225 72.2979 9.94398 75.7894 9.94398C79.2567 9.94398 81.9728 12.4847 81.9728 15.8138C81.9728 19.1045 79.2381 21.6831 75.7466 21.6831Z" fill="white"/>
<path d="M51.336 12.6164C49.5652 12.6164 48.28 13.9361 48.28 15.8138C48.28 17.6062 49.6417 19.0111 51.3788 19.0111C53.1495 19.0111 54.4352 17.6549 54.4352 15.8138C54.4352 14.0208 53.0736 12.6164 51.336 12.6164ZM51.336 21.6831C47.8683 21.6831 45.1521 19.1423 45.1521 15.8138C45.1521 12.5225 47.8873 9.94398 51.3788 9.94398C54.8461 9.94398 57.5627 12.4847 57.5627 15.8138C57.5627 19.1045 54.8275 21.6831 51.336 21.6831Z" fill="white"/>
</g>
</svg>
