<svg width="138" height="30" viewBox="0 0 138 30" fill="none" xmlns="http://www.w3.org/2000/svg">
<g clip-path="url(#clip0_1_98)">
<path d="M57.0893 5.86739V23.4696H54.0397V9.65675H53.999L48.5503 23.4696H46.5172L40.9466 9.65675H40.9059V23.4696H38.1002V5.86739H42.4917L47.5338 18.906H47.6151L52.9418 5.86739H57.0893ZM59.6104 7.212C59.6104 6.72305 59.773 6.3156 60.139 5.98963C60.5049 5.66366 60.9116 5.50068 61.3995 5.50068C61.9281 5.50068 62.3754 5.66366 62.7007 5.98963C63.026 6.3156 63.2293 6.72305 63.2293 7.212C63.2293 7.70095 63.0667 8.10841 62.7007 8.43438C62.3347 8.76034 61.9281 8.92332 61.3995 8.92332C60.8709 8.92332 60.4643 8.76034 60.139 8.43438C59.8137 8.06766 59.6104 7.66021 59.6104 7.212ZM62.904 10.8384V23.4696H59.9357V10.8384H62.904ZM71.8903 21.31C72.3376 21.31 72.8255 21.2285 73.3541 20.9841C73.8827 20.7803 74.3707 20.4951 74.818 20.1691V22.9399C74.33 23.2251 73.8014 23.4288 73.1915 23.551C72.5815 23.6733 71.931 23.7548 71.199 23.7548C69.3286 23.7548 67.8241 23.1843 66.6856 22.0027C65.5064 20.8211 64.9371 19.3135 64.9371 17.5207C64.9371 15.4834 65.547 13.8128 66.7262 12.5089C67.9054 11.2051 69.5726 10.5532 71.7683 10.5532C72.3376 10.5532 72.9068 10.6346 73.4354 10.7569C74.0047 10.8791 74.452 11.0828 74.7773 11.2458V14.098C74.33 13.7721 73.8421 13.4868 73.3948 13.3239C72.9068 13.1609 72.4189 13.0386 71.931 13.0386C70.7518 13.0386 69.8165 13.4054 69.0846 14.1795C68.3527 14.9537 68.0274 15.9723 68.0274 17.2762C68.0274 18.5393 68.3934 19.558 69.0846 20.2506C69.7759 20.9433 70.7111 21.31 71.8903 21.31ZM83.235 10.6346C83.4789 10.6346 83.6823 10.6346 83.8856 10.6754C84.0889 10.7161 84.2515 10.7569 84.3735 10.7976V13.8128C84.2109 13.6906 84.0076 13.5683 83.6823 13.4868C83.357 13.4054 83.0317 13.3239 82.5844 13.3239C81.8525 13.3239 81.2425 13.6498 80.7546 14.261C80.2667 14.8722 79.982 15.8094 79.982 17.1132V23.4696H77.0137V10.8384H79.982V12.8349H80.0227C80.3073 12.1422 80.7139 11.6125 81.2425 11.2051C81.8118 10.8384 82.4624 10.6346 83.235 10.6346ZM84.5362 17.3577C84.5362 15.2797 85.1461 13.6091 86.2846 12.3867C87.4638 11.1643 89.0903 10.5532 91.1641 10.5532C93.1158 10.5532 94.661 11.1236 95.7589 12.3052C96.8567 13.4868 97.426 15.0759 97.426 17.0725C97.426 19.1098 96.8161 20.7396 95.6775 21.962C94.4983 23.1843 92.9125 23.7955 90.8794 23.7955C88.9276 23.7955 87.3825 23.2251 86.244 22.0842C85.1054 20.9026 84.5362 19.3135 84.5362 17.3577ZM87.6265 17.2355C87.6265 18.5393 87.9111 19.558 88.521 20.2506C89.131 20.9433 89.9849 21.31 91.0827 21.31C92.1399 21.31 92.9938 20.9841 93.5631 20.2506C94.1324 19.558 94.417 18.5393 94.417 17.154C94.417 15.8094 94.1324 14.7907 93.5631 14.0573C92.9938 13.3646 92.1399 12.9979 91.1234 12.9979C90.0255 12.9979 89.2123 13.3646 88.6023 14.098C87.9111 14.8722 87.6265 15.8908 87.6265 17.2355ZM101.858 14.1795C101.858 14.587 101.98 14.9537 102.265 15.1982C102.549 15.4426 103.119 15.7279 104.054 16.0946C105.233 16.5835 106.087 17.1132 106.534 17.6837C107.022 18.2948 107.266 18.9875 107.266 19.8432C107.266 21.0248 106.819 21.962 105.884 22.6954C104.989 23.4288 103.729 23.7548 102.183 23.7548C101.655 23.7548 101.086 23.6733 100.435 23.551C99.7844 23.4288 99.2558 23.2658 98.8085 23.0621V20.1284C99.3371 20.4951 99.947 20.8211 100.557 21.0248C101.167 21.2285 101.736 21.3508 102.265 21.3508C102.915 21.3508 103.444 21.2693 103.729 21.0656C104.054 20.8618 104.217 20.5766 104.217 20.1284C104.217 19.7209 104.054 19.395 103.729 19.069C103.403 18.7838 102.753 18.4578 101.858 18.0911C100.76 17.6429 99.9877 17.1132 99.5404 16.5428C99.0931 15.9723 98.8492 15.2389 98.8492 14.3425C98.8492 13.2016 99.2964 12.2645 100.191 11.5311C101.086 10.7976 102.265 10.4309 103.688 10.4309C104.135 10.4309 104.623 10.4717 105.152 10.5939C105.68 10.7161 106.168 10.8384 106.534 10.9606V13.8536C106.128 13.6091 105.68 13.3646 105.152 13.1609C104.623 12.9572 104.095 12.8757 103.607 12.8757C103.037 12.8757 102.59 12.9979 102.305 13.2016C102.021 13.4868 101.858 13.7721 101.858 14.1795ZM108.527 17.3577C108.527 15.2797 109.137 13.6091 110.275 12.3867C111.454 11.1643 113.081 10.5532 115.155 10.5532C117.106 10.5532 118.652 11.1236 119.749 12.3052C120.847 13.4868 121.417 15.0759 121.417 17.0725C121.417 19.1098 120.807 20.7396 119.668 21.962C118.489 23.1843 116.903 23.7955 114.87 23.7955C112.918 23.7955 111.373 23.2251 110.235 22.0842C109.137 20.9026 108.527 19.3135 108.527 17.3577ZM111.617 17.2355C111.617 18.5393 111.902 19.558 112.512 20.2506C113.122 20.9433 113.975 21.31 115.073 21.31C116.13 21.31 116.984 20.9841 117.554 20.2506C118.123 19.558 118.408 18.5393 118.408 17.154C118.408 15.8094 118.123 14.7907 117.554 14.0573C116.984 13.3646 116.13 12.9979 115.114 12.9979C114.016 12.9979 113.203 13.3646 112.593 14.098C111.942 14.8722 111.617 15.8908 111.617 17.2355ZM131.297 13.2831H126.865V23.4696H123.856V13.2831H121.742V10.8384H123.856V9.08631C123.856 7.78244 124.304 6.68231 125.157 5.82665C126.011 4.97099 127.109 4.56353 128.451 4.56353C128.817 4.56353 129.142 4.60428 129.427 4.60428C129.712 4.60428 129.956 4.68577 130.159 4.76726V7.33424C130.078 7.29349 129.874 7.212 129.63 7.13051C129.386 7.04902 129.102 7.00827 128.776 7.00827C128.166 7.00827 127.678 7.212 127.353 7.57872C127.028 7.94543 126.865 8.55661 126.865 9.29004V10.7976H131.297V7.94543L134.266 7.04902V10.7976H137.275V13.2424H134.266V19.1505C134.266 19.9247 134.428 20.4544 134.672 20.7803C134.957 21.1063 135.404 21.2693 136.014 21.2693C136.177 21.2693 136.38 21.2285 136.624 21.147C136.868 21.0656 137.071 20.9841 137.234 20.8618V23.3066C137.031 23.4288 136.746 23.5103 136.299 23.5918C135.852 23.6733 135.445 23.714 134.998 23.714C133.737 23.714 132.802 23.3881 132.192 22.7361C131.582 22.0842 131.257 21.0656 131.257 19.7209L131.297 13.2831Z" fill="#737373"/>
<path d="M13.9064 0.000289917H0V13.9353H13.9064V0.000289917Z" fill="#F25022"/>
<path d="M29.2766 -5.34058e-05H15.3702V13.935H29.2766V-5.34058e-05Z" fill="#7FBA00"/>
<path d="M13.9064 15.4019H0V29.337H13.9064V15.4019Z" fill="#00A4EF"/>
<path d="M29.2766 15.4019H15.3702V29.337H29.2766V15.4019Z" fill="#FFB900"/>
</g>
<defs>
<clipPath id="clip0_1_98">
<rect width="137.275" height="29.3369" fill="white"/>
</clipPath>
</defs>
</svg>
