<svg width="117" height="28" viewBox="0 0 117 28" fill="none" xmlns="http://www.w3.org/2000/svg">
<g clip-path="url(#clip0_1_89)">
<path d="M24.1898 15.8741C26.5638 15.8741 29.9986 15.3836 29.9986 12.5544C30.0057 12.336 29.986 12.1177 29.9398 11.9041L28.526 5.75146C28.1996 4.39772 27.9131 3.7836 25.541 2.59527C23.7002 1.65221 19.6904 0.0950317 18.5043 0.0950317C17.3999 0.0950317 17.0792 1.52102 15.7622 1.52102C14.4945 1.52102 13.5533 0.456283 12.3672 0.456283C11.2286 0.456283 10.4866 1.23392 9.9135 2.83293C9.9135 2.83293 8.31754 7.34287 8.11259 7.99692C8.08001 8.11703 8.06594 8.24142 8.07084 8.36578C8.07084 10.1188 14.9595 15.8665 24.1898 15.8665M30.363 13.7028C30.6913 15.26 30.6913 15.4235 30.6913 15.6288C30.6913 18.2907 27.7043 19.768 23.778 19.768C14.9044 19.7737 7.13148 14.5641 7.13148 11.1208C7.13097 10.6415 7.22849 10.1672 7.41804 9.72713C4.22612 9.88684 0.0948486 10.4572 0.0948486 14.1116C0.0948486 20.0969 14.2497 27.4741 25.4575 27.4741C34.0502 27.4741 36.2174 23.5802 36.2174 20.5057C36.2174 18.0872 34.1299 15.3417 30.3668 13.7028" fill="#EE0000"/>
<path d="M30.363 13.7028C30.6913 15.26 30.6913 15.4235 30.6913 15.6288C30.6913 18.2907 27.7043 19.768 23.778 19.768C14.9044 19.7737 7.13147 14.5641 7.13147 11.1208C7.13096 10.6415 7.22848 10.1672 7.41802 9.72712L8.11258 8.00452C8.08076 8.12218 8.06669 8.24395 8.07083 8.36577C8.07083 10.1188 14.9594 15.8665 24.1898 15.8665C26.5638 15.8665 29.9986 15.3759 29.9986 12.5468C30.0057 12.3284 29.986 12.11 29.9398 11.8965L30.363 13.7028ZM110.017 17.6442C110.017 19.9049 111.373 21.0039 113.848 21.0039C114.61 20.9849 115.367 20.8777 116.104 20.6844V18.0625C115.633 18.2121 115.141 18.2866 114.647 18.2831C113.628 18.2831 113.25 17.9636 113.25 17.0035V12.986H116.203V10.2861H113.25V6.86373L110.024 7.56342V10.2861H107.882V12.986H110.017V17.6442ZM99.9589 17.7051C99.9589 17.0054 100.659 16.665 101.716 16.665C102.362 16.6688 103.006 16.7492 103.633 16.9046V18.2641C103.015 18.6023 102.32 18.7746 101.616 18.7641C100.579 18.7641 99.9589 18.3648 99.9589 17.7051ZM100.946 21.0438C102.084 21.0438 103.003 20.8042 103.861 20.2243V20.8651H107.052V14.0849C107.052 11.5068 105.318 10.0922 102.424 10.0922C100.807 10.0922 99.2093 10.4724 97.49 11.252L98.6476 13.6324C99.8849 13.1115 100.925 12.7921 101.841 12.7921C103.17 12.7921 103.857 13.3111 103.857 14.372V14.8911C103.075 14.6883 102.27 14.5873 101.462 14.5907C98.7462 14.5907 97.1104 15.7315 97.1104 17.7716C97.1104 19.6311 98.5868 21.0495 100.942 21.0495L100.946 21.0438ZM83.3996 20.8708H86.8326V15.3855H92.5807V20.8651H96.0231V6.86753H92.5939V12.2464H86.8458V6.86753H83.4129L83.3996 20.8708ZM70.3321 15.5661C70.3321 14.045 71.5296 12.8852 73.1066 12.8852C73.927 12.8685 74.7237 13.1618 75.3382 13.7066V17.4047C75.0405 17.6865 74.69 17.9066 74.307 18.0521C73.924 18.1976 73.516 18.2658 73.1066 18.2526C71.5505 18.2526 70.3321 17.0928 70.3321 15.5737V15.5661ZM75.3819 20.8727H78.5757V6.16785L75.3496 6.86753V10.847C74.5284 10.3805 73.5989 10.1392 72.6549 10.1473C69.5826 10.1473 67.1668 12.5259 67.1668 15.5661C67.158 16.2794 67.2911 16.9874 67.5583 17.6486C67.8255 18.3099 68.2216 18.9112 68.7233 19.4174C69.225 19.9236 69.8224 20.3246 70.4804 20.597C71.1385 20.8694 71.8442 21.0077 72.5562 21.0039C73.5743 21.0087 74.5672 20.6869 75.3895 20.0855L75.3819 20.8727ZM60.726 12.7388C61.7432 12.7388 62.601 13.3986 62.9406 14.4177H58.538C58.8568 13.3663 59.6557 12.7388 60.726 12.7388ZM55.2854 15.5908C55.2854 18.6709 57.7998 21.0704 61.0316 21.0704C62.8078 21.0704 64.1058 20.5894 65.4437 19.4695L63.3069 17.5682C62.8078 18.0891 62.0696 18.3686 61.1929 18.3686C60.6415 18.3842 60.0984 18.2321 59.6351 17.9324C59.1717 17.6328 58.8097 17.1995 58.5968 16.6898H66.1212V15.8855C66.1212 12.5259 63.8667 10.1074 60.7925 10.1074C60.0698 10.0965 59.3522 10.2304 58.682 10.5014C58.0117 10.7723 57.4023 11.1748 56.8896 11.6852C56.3768 12.1955 55.9711 12.8035 55.6963 13.4732C55.4214 14.1429 55.283 14.861 55.2892 15.5851L55.2854 15.5908ZM49.7194 9.80698C50.858 9.80698 51.4957 10.5257 51.4957 11.387C51.4957 12.2483 50.858 12.967 49.7194 12.967H46.3245V9.80698H49.7194ZM42.8877 20.8651H46.3207V15.7657H48.9338L51.5697 20.8651H55.4125L52.3382 15.2657C53.1195 14.9473 53.7879 14.402 54.2573 13.7C54.7267 12.9979 54.9757 12.1712 54.9722 11.3261C54.9722 8.80688 52.9967 6.86753 50.0382 6.86753H42.8877V20.8651Z" fill="black"/>
</g>
<defs>
<clipPath id="clip0_1_89">
<rect width="116.328" height="27.5692" fill="white"/>
</clipPath>
</defs>
</svg>
