<svg width="65" height="46" viewBox="0 0 65 46" fill="none" xmlns="http://www.w3.org/2000/svg">
<g clip-path="url(#clip0_1_105)">
<mask id="mask0_1_105" style="mask-type:luminance" maskUnits="userSpaceOnUse" x="0" y="0" width="65" height="46">
<path d="M0.0142212 0.118832H64.5397V45.2704H0.0142212V0.118832Z" fill="white"/>
</mask>
<g mask="url(#mask0_1_105)">
<path fill-rule="evenodd" clip-rule="evenodd" d="M26.8065 5.06166C28.8894 2.88963 31.7883 1.54459 34.9908 1.54459C39.2609 1.54459 42.9616 3.92098 44.9543 7.46182C46.7231 6.66971 48.639 6.26075 50.5765 6.26174C58.2627 6.26174 64.5017 12.5592 64.5017 20.33C64.5017 28.1008 58.2627 34.3983 50.5765 34.3983C49.6371 34.3983 48.7214 34.3037 47.8247 34.125C46.0811 37.2381 42.7481 39.3531 38.9525 39.3531C37.4072 39.3562 35.8816 39.005 34.4926 38.3265C32.7253 42.4852 28.6094 45.4082 23.8175 45.4082C18.812 45.4082 14.5657 42.2475 12.9288 37.8037C12.2003 37.9577 11.4577 38.0351 10.7131 38.0347C4.75874 38.0347 -0.0569458 33.1393 -0.0569458 27.127C-0.0569458 23.0871 2.1113 19.57 5.32808 17.6689C4.64564 16.0941 4.29436 14.3953 4.29615 12.6785C4.29615 5.73941 9.9184 0.131104 16.8454 0.131104C20.902 0.131104 24.5315 2.06787 26.8089 5.07401" fill="#00A1E0"/>
</g>
<path fill-rule="evenodd" clip-rule="evenodd" d="M9.3467 23.5977C9.30614 23.7037 9.36117 23.7258 9.37422 23.7445C9.49544 23.8325 9.61856 23.8961 9.74192 23.9677C10.4014 24.317 11.0229 24.4192 11.6729 24.4192C12.9967 24.4192 13.8198 23.7134 13.8198 22.5775V22.5551C13.8198 21.5048 12.8899 21.1222 12.0217 20.8489L11.908 20.8121C11.2509 20.5987 10.6839 20.4128 10.6839 19.9803V19.9582C10.6839 19.5875 11.0161 19.3142 11.5285 19.3142C12.0978 19.3142 12.7763 19.5041 13.2104 19.7443C13.2104 19.7443 13.339 19.8275 13.3857 19.7032C13.4111 19.636 13.6324 19.0426 13.6561 18.976C13.6813 18.9064 13.6372 18.8539 13.5919 18.8268C13.0937 18.5226 12.4057 18.3159 11.6941 18.3159L11.5619 18.3164C10.3497 18.3164 9.5028 19.0507 9.5028 20.101V20.1236C9.5028 21.231 10.4375 21.5922 11.3105 21.8417L11.4509 21.8855C12.0867 22.0813 12.637 22.2514 12.637 22.6982V22.7205C12.637 23.1317 12.2788 23.4382 11.7047 23.4382C11.4815 23.4382 10.7701 23.4344 9.99907 22.9463C9.90584 22.8919 9.85271 22.8527 9.78083 22.8087C9.74287 22.7857 9.64798 22.7441 9.6067 22.8686L9.34575 23.5958M28.7271 23.5958C28.6865 23.7018 28.7416 23.7239 28.7551 23.7426C28.8759 23.8306 28.9994 23.8942 29.1228 23.9658C29.7823 24.3151 30.4038 24.4173 31.0538 24.4173C32.3775 24.4173 33.2007 23.7115 33.2007 22.5756V22.5532C33.2007 21.5029 32.2732 21.1203 31.4025 20.847L31.2889 20.8101C30.6318 20.5967 30.0648 20.4109 30.0648 19.9784V19.9563C30.0648 19.5856 30.3969 19.3123 30.9094 19.3123C31.4787 19.3123 32.1548 19.5022 32.5913 19.7424C32.5913 19.7424 32.7199 19.8256 32.7668 19.7013C32.792 19.6341 33.0135 19.0407 33.0349 18.9741C33.0603 18.9045 33.0159 18.852 32.9708 18.8249C32.4727 18.5207 31.7847 18.314 31.073 18.314L30.9407 18.3145C29.7284 18.3145 28.8815 19.0488 28.8815 20.0991V20.1217C28.8815 21.2291 29.8162 21.5903 30.6892 21.8398L30.8294 21.8836C31.4675 22.0794 32.0155 22.2495 32.0155 22.6963V22.7186C32.0155 23.1298 31.6573 23.4363 31.0832 23.4363C30.8595 23.4363 30.1462 23.4325 29.3776 22.9444C29.2844 22.89 29.2298 22.8524 29.1591 22.8068C29.1351 22.7916 29.0234 22.7479 28.9852 22.8667L28.7243 23.5939M41.9615 21.3696C41.9615 22.0112 41.8419 22.5174 41.608 22.8762C41.3746 23.2303 41.0221 23.4038 40.531 23.4038C40.0399 23.4038 39.6888 23.2317 39.4587 22.8786C39.227 22.5221 39.11 22.0136 39.11 21.3719C39.11 20.7303 39.2277 20.2265 39.4587 19.8724C39.6884 19.5207 40.0376 19.352 40.531 19.352C41.0244 19.352 41.3755 19.5224 41.608 19.8724C41.8433 20.2265 41.9615 20.7303 41.9615 21.3719M43.0669 20.1814C42.9581 19.813 42.7894 19.4898 42.564 19.2189C42.3384 18.948 42.054 18.7294 41.7148 18.5725C41.3779 18.4145 40.9794 18.3349 40.5286 18.3349C40.0779 18.3349 39.6817 18.415 39.3425 18.5725C39.0056 18.7303 38.7186 18.948 38.4932 19.2189C38.2683 19.4898 38.0994 19.813 37.9903 20.1814C37.8824 20.5473 37.8276 20.9466 37.8276 21.3719C37.8276 21.7973 37.8824 22.1965 37.9903 22.5625C38.0987 22.9308 38.2679 23.254 38.4932 23.5249C38.7188 23.7959 39.0056 24.0121 39.3425 24.1666C39.6817 24.3206 40.0803 24.399 40.5286 24.399C40.977 24.399 41.3755 24.3206 41.7124 24.1666C42.0492 24.0126 42.3363 23.7959 42.5617 23.5249C42.7868 23.254 42.9554 22.9308 43.0646 22.5625C43.1723 22.1965 43.2271 21.7973 43.2271 21.3719C43.2271 20.9489 43.1723 20.5473 43.0646 20.1814M52.1503 23.2231C52.114 23.1155 52.0092 23.1561 52.0092 23.1561C51.8486 23.2177 51.6771 23.2747 51.4944 23.3032C51.3103 23.3322 51.1053 23.3467 50.8895 23.3467C50.3557 23.3467 49.9287 23.1873 49.6251 22.8714C49.319 22.5554 49.1482 22.0468 49.1506 21.3577C49.1523 20.7303 49.3036 20.2598 49.5752 19.8986C49.8433 19.5421 50.2561 19.3567 50.8017 19.3567C51.2572 19.3567 51.6059 19.4097 51.9712 19.5243C51.9712 19.5243 52.0578 19.5621 52.0993 19.4478C52.1964 19.1792 52.268 18.9867 52.3721 18.6921C52.4016 18.6077 52.3294 18.5721 52.3031 18.5618C52.1598 18.5058 51.8215 18.4138 51.5653 18.3751C51.3257 18.3385 51.0482 18.3194 50.735 18.3194C50.2701 18.3194 49.8573 18.3991 49.5038 18.5568C49.1504 18.7144 48.8515 18.9323 48.6142 19.2032C48.377 19.4741 48.1967 19.7973 48.0757 20.1657C47.9559 20.5316 47.8954 20.9332 47.8954 21.3586C47.8954 22.2759 48.1422 23.0197 48.6308 23.5639C49.1195 24.1105 49.8549 24.3862 50.8133 24.3862C51.3803 24.3862 51.9615 24.2714 52.379 24.1057C52.379 24.1057 52.4587 24.0672 52.4241 23.9741L52.1513 23.2231M54.0847 20.7517C54.1376 20.3952 54.2351 20.0982 54.3883 19.8677C54.6177 19.516 54.9671 19.3235 55.4582 19.3235C55.9493 19.3235 56.2743 19.5169 56.5067 19.8677C56.6609 20.0994 56.7283 20.4071 56.7535 20.7517L54.0728 20.7512L54.0847 20.7517ZM57.8091 19.9675C57.7149 19.6134 57.4817 19.2546 57.3299 19.0906C57.0879 18.8316 56.8531 18.6486 56.6182 18.5488C56.2792 18.4043 55.9144 18.3302 55.546 18.3309C55.0786 18.3309 54.654 18.41 54.31 18.5709C53.9661 18.7329 53.6766 18.9535 53.4489 19.2291C53.2214 19.5048 53.0504 19.8304 52.9412 20.2035C52.8321 20.5718 52.7771 20.9758 52.7771 21.3988C52.7771 21.8313 52.8342 22.2329 52.9467 22.5965C53.0603 22.9625 53.2432 23.2833 53.4899 23.5494C53.7367 23.818 54.0522 24.0271 54.4317 24.1744C54.8089 24.3206 55.2668 24.3964 55.791 24.3947C56.8728 24.3911 57.4421 24.1499 57.6746 24.0192C57.7161 23.9959 57.7553 23.9558 57.7064 23.8401L57.4621 23.1533C57.4246 23.0509 57.3211 23.0879 57.3211 23.0879C57.0531 23.1882 56.6735 23.3683 55.7839 23.366C55.2027 23.365 54.7733 23.1932 54.5029 22.924C54.2277 22.6483 54.0901 22.2467 54.0688 21.6763L57.8169 21.6792C57.8169 21.6792 57.9156 21.6782 57.9258 21.5818C57.9299 21.5418 58.0542 20.8118 57.8141 19.9682L57.8091 19.9675ZM24.123 20.7517C24.1759 20.3952 24.2737 20.0982 24.4267 19.8677C24.6563 19.516 25.0055 19.3235 25.4966 19.3235C25.9876 19.3235 26.3126 19.5169 26.5451 19.8677C26.6991 20.0994 26.7664 20.4071 26.7918 20.7517L24.1112 20.7512L24.123 20.7517ZM27.8475 19.9675C27.7535 19.6134 27.5201 19.2546 27.3683 19.0906C27.1263 18.8316 26.8915 18.6486 26.6566 18.5488C26.3175 18.4043 25.9528 18.3302 25.5843 18.3309C25.117 18.3309 24.6924 18.41 24.3484 18.5709C24.0044 18.7329 23.715 18.9535 23.4873 19.2291C23.2602 19.5048 23.0887 19.8304 22.9796 20.2035C22.8707 20.5718 22.8159 20.9758 22.8159 21.3988C22.8159 21.8313 22.8726 22.2329 22.9858 22.5965C23.0992 22.9625 23.2823 23.2833 23.5266 23.5494C23.7734 23.818 24.0889 24.0271 24.4684 24.1744C24.8456 24.3206 25.3011 24.3964 25.8277 24.3947C26.9095 24.3911 27.4788 24.1499 27.7113 24.0192C27.7526 23.9959 27.792 23.9558 27.7429 23.8401L27.4985 23.1533C27.4608 23.0509 27.3574 23.0879 27.3574 23.0879C27.0893 23.1882 26.7097 23.3683 25.8201 23.366C25.2413 23.365 24.8096 23.1932 24.5391 22.924C24.2639 22.6483 24.1264 22.2467 24.105 21.6763L27.8532 21.6792C27.8532 21.6792 27.9519 21.6782 27.9621 21.5818C27.9661 21.5418 28.0904 20.8118 27.8501 19.9682L27.8475 19.9675ZM16.0336 23.1994C15.8868 23.082 15.8664 23.0532 15.8178 22.977C15.7435 22.8622 15.7055 22.6989 15.7055 22.4898C15.7055 22.1618 15.8147 21.9242 16.04 21.765C16.0377 21.7655 16.3627 21.4846 17.1265 21.4941C17.4665 21.5002 17.8057 21.5292 18.1419 21.5808V23.2847H18.1423C18.1423 23.2847 17.6679 23.3871 17.1317 23.4194C16.3703 23.4653 16.0334 23.1999 16.0358 23.2006L16.0336 23.1994ZM17.5234 20.5616C17.3716 20.5504 17.1747 20.5449 16.9398 20.5449C16.6196 20.5449 16.3088 20.5849 16.0194 20.6633C15.7276 20.7422 15.4643 20.8643 15.2389 21.0269C15.0129 21.1884 14.8271 21.3998 14.6957 21.6447C14.5631 21.8919 14.4955 22.1818 14.4955 22.5097C14.4955 22.8424 14.5531 23.13 14.667 23.3653C14.7785 23.5986 14.9465 23.8004 15.1557 23.9522C15.3637 24.1038 15.6206 24.216 15.9171 24.2825C16.2113 24.3498 16.5434 24.3838 16.9088 24.3838C17.2931 24.3838 17.675 24.3515 18.0451 24.289C18.3603 24.2345 18.6743 24.1733 18.9869 24.1055C19.1116 24.0767 19.2502 24.039 19.2502 24.039C19.3427 24.0154 19.3356 23.9163 19.3356 23.9163L19.3334 20.4943C19.3334 19.7434 19.1332 19.1849 18.738 18.8404C18.3442 18.4958 17.7677 18.3223 17.0205 18.3223C16.7406 18.3223 16.2875 18.3603 16.017 18.4147C16.017 18.4147 15.201 18.5735 14.8641 18.8377C14.8641 18.8377 14.7901 18.8834 14.8304 18.9867L15.0961 19.6997C15.1291 19.7921 15.219 19.7605 15.219 19.7605C15.219 19.7605 15.2472 19.7493 15.2804 19.7296C15.9992 19.3375 16.9102 19.3494 16.9102 19.3494C17.3135 19.3494 17.6266 19.4314 17.8354 19.5918C18.0396 19.7488 18.1438 19.9863 18.1438 20.4853V20.6438C17.8235 20.5972 17.527 20.5704 17.527 20.5704L17.5234 20.5616ZM47.6511 18.6296C47.6565 18.617 47.6593 18.6035 47.6594 18.5899C47.6595 18.5762 47.6568 18.5627 47.6516 18.5501C47.6463 18.5375 47.6386 18.5261 47.6289 18.5166C47.6191 18.507 47.6076 18.4996 47.5949 18.4946C47.5311 18.4703 47.2129 18.4031 46.9686 18.3879C46.4989 18.3584 46.2379 18.4378 46.0031 18.5433C45.7711 18.6481 45.5144 18.8166 45.3721 19.0115L45.3716 18.5552C45.3716 18.4924 45.3272 18.4418 45.2641 18.4418H44.3057C44.2436 18.4418 44.1985 18.4924 44.1985 18.5552V24.1397C44.1986 24.1699 44.2106 24.1988 44.2319 24.2201C44.2532 24.2415 44.282 24.2535 44.3121 24.2536H45.2943C45.3244 24.2535 45.3532 24.2415 45.3745 24.2201C45.3957 24.1988 45.4077 24.1699 45.4077 24.1397V21.3356C45.4077 20.9601 45.4489 20.587 45.5312 20.3517C45.6124 20.1191 45.7227 19.9335 45.8586 19.8004C45.9883 19.6719 46.147 19.5765 46.3212 19.5224C46.4847 19.4754 46.654 19.4515 46.8241 19.4516C47.0198 19.4516 47.2345 19.5019 47.2345 19.5019C47.3066 19.51 47.3467 19.4658 47.3712 19.4007C47.4355 19.2294 47.6179 18.7163 47.6535 18.6141" fill="#FFFFFE"/>
<path fill-rule="evenodd" clip-rule="evenodd" d="M38.4783 16.0521C38.3569 16.0153 38.2334 15.986 38.1085 15.9641C37.9404 15.936 37.7702 15.9228 37.5999 15.9247C36.923 15.9247 36.3895 16.1162 36.0149 16.4946C35.643 16.87 35.3899 17.442 35.2629 18.1946L35.2172 18.4487H34.3677C34.3677 18.4487 34.264 18.4444 34.2422 18.5577L34.1027 19.3372C34.0929 19.4118 34.125 19.4584 34.2246 19.4579H35.0516L34.2125 24.1497C34.1468 24.5275 34.0716 24.8383 33.9883 25.0738C33.9062 25.3062 33.8261 25.4804 33.7274 25.6069C33.6318 25.7292 33.5412 25.8193 33.3848 25.8718C33.2558 25.9153 33.1073 25.9353 32.9445 25.9353C32.8539 25.9353 32.7334 25.9201 32.6444 25.9022C32.5555 25.8847 32.5092 25.8647 32.4426 25.8367C32.4426 25.8367 32.3455 25.7996 32.3073 25.897C32.2763 25.9766 32.0559 26.5838 32.0298 26.6589C32.0032 26.733 32.0405 26.7915 32.0874 26.8084C32.1975 26.8478 32.2794 26.873 32.4293 26.9084C32.6376 26.9576 32.8131 26.9607 32.9775 26.9607C33.322 26.9607 33.6358 26.9122 33.896 26.8181C34.1579 26.7233 34.3859 26.5581 34.5876 26.3345C34.8056 26.0933 34.9427 25.8407 35.0739 25.4961C35.2036 25.1546 35.3142 24.7307 35.4027 24.2366L36.2458 19.4579H37.4784C37.4784 19.4579 37.5823 19.4617 37.6039 19.3488L37.7434 18.5694C37.7531 18.4948 37.7213 18.4482 37.6212 18.4487H36.4249C36.4308 18.4216 36.4851 18 36.6225 17.6031C36.6811 17.4337 36.7914 17.2971 36.8849 17.2032C36.9721 17.1138 37.0796 17.0468 37.1982 17.0079C37.3282 16.9676 37.4638 16.948 37.5999 16.9499C37.7125 16.9499 37.8231 16.9634 37.9073 16.981C38.0233 17.0057 38.0684 17.0188 38.0987 17.0278C38.2207 17.0651 38.237 17.029 38.261 16.9698L38.5471 16.1828C38.5765 16.0982 38.5049 16.0625 38.4783 16.0521ZM21.76 24.1596C21.76 24.2224 21.7154 24.2735 21.6528 24.2735H20.6605C20.5976 24.2735 20.553 24.2224 20.553 24.1596V16.1588C20.553 16.0963 20.5976 16.0457 20.6605 16.0457H21.6528C21.7154 16.0457 21.76 16.0963 21.76 16.1588V24.1596Z" fill="#FFFFFE"/>
</g>
<defs>
<clipPath id="clip0_1_105">
<rect width="64.7627" height="45.3892" fill="white"/>
</clipPath>
</defs>
</svg>
