<svg width="91" height="23" viewBox="0 0 91 23" fill="none" xmlns="http://www.w3.org/2000/svg">
<g clip-path="url(#clip0_1_186)">
<path d="M28.8586 17.9116L29.9804 15.3193C31.1927 16.2194 32.803 16.6874 34.3952 16.6874C35.5712 16.6874 36.313 16.2374 36.313 15.5533C36.2949 13.6451 29.2748 15.1393 29.2205 10.3508C29.2024 7.92058 31.3736 6.04839 34.4494 6.04839C36.2768 6.04839 38.1043 6.49844 39.407 7.52454L38.3576 10.1708C37.1634 9.41472 35.6798 8.87467 34.2685 8.87467C33.3096 8.87467 32.6763 9.32471 32.6763 9.90077C32.6944 11.773 39.7688 10.7469 39.8412 15.3193C39.8412 17.8035 37.7243 19.5497 34.6846 19.5497C32.4592 19.5497 30.4147 19.0277 28.8586 17.9116ZM71.9023 14.3832C71.3414 15.3553 70.292 16.0214 69.0798 16.0214C67.2886 16.0214 65.8411 14.5812 65.8411 12.7991C65.8411 11.0169 67.2886 9.57674 69.0798 9.57674C70.292 9.57674 71.3414 10.2428 71.9023 11.2149L74.9963 9.50473C73.8383 7.45253 71.6128 6.04839 69.0798 6.04839C65.3345 6.04839 62.2949 9.07269 62.2949 12.7991C62.2949 16.5254 65.3345 19.5497 69.0798 19.5497C71.6309 19.5497 73.8383 18.1636 74.9963 16.0934L71.9023 14.3832ZM41.3972 0.449848H45.2692V19.2977H41.3972V0.449848ZM76.5161 0.449848V19.2977H80.388V13.6451L84.9837 19.2977H89.9413L84.0971 12.583L89.507 6.31842H84.7666L80.388 11.5209V0.449848H76.5161ZM56.7764 14.4192C56.2155 15.3373 55.0576 16.0214 53.7549 16.0214C51.9636 16.0214 50.5162 14.5812 50.5162 12.7991C50.5162 11.0169 51.9636 9.57674 53.7549 9.57674C55.0576 9.57674 56.2155 10.2968 56.7764 11.2329V14.4192ZM56.7764 6.31842V7.84857C56.1432 6.78647 54.5691 6.04839 52.9226 6.04839C49.5211 6.04839 46.8433 9.03669 46.8433 12.7811C46.8433 16.5254 49.5211 19.5497 52.9226 19.5497C54.5691 19.5497 56.1432 18.8116 56.7764 17.7495V19.2797H60.6484V6.31842H56.7764Z" fill="black"/>
<path d="M4.92125 14.4013C4.92125 15.7154 3.85376 16.7775 2.53295 16.7775C1.21215 16.7775 0.144653 15.7154 0.144653 14.4013C0.144653 13.0872 1.21215 12.0251 2.53295 12.0251H4.92125V14.4013ZM6.11541 14.4013C6.11541 13.0872 7.1829 12.0251 8.50371 12.0251C9.82451 12.0251 10.892 13.0872 10.892 14.4013V20.3419C10.892 21.656 9.82451 22.7181 8.50371 22.7181C7.1829 22.7181 6.11541 21.656 6.11541 20.3419V14.4013Z" fill="#E01E5A"/>
<path d="M8.50386 4.86038C7.18305 4.86038 6.11555 3.79828 6.11555 2.48415C6.11555 1.17003 7.18305 0.107922 8.50386 0.107922C9.82466 0.107922 10.8922 1.17003 10.8922 2.48415V4.86038H8.50386ZM8.50386 6.0665C9.82466 6.0665 10.8922 7.12861 10.8922 8.44273C10.8922 9.75686 9.82466 10.819 8.50386 10.819H2.51501C1.19421 10.819 0.126709 9.75686 0.126709 8.44273C0.126709 7.12861 1.19421 6.0665 2.51501 6.0665H8.50386Z" fill="#36C5F0"/>
<path d="M18.0751 8.44269C18.0751 7.12856 19.1426 6.06645 20.4634 6.06645C21.7842 6.06645 22.8517 7.12856 22.8517 8.44269C22.8517 9.75681 21.7842 10.8189 20.4634 10.8189H18.0751V8.44269ZM16.881 8.44269C16.881 9.75681 15.8135 10.8189 14.4927 10.8189C13.1719 10.8189 12.1044 9.75681 12.1044 8.44269V2.4841C12.1044 1.16998 13.1719 0.107872 14.4927 0.107872C15.8135 0.107872 16.881 1.16998 16.881 2.4841V8.44269Z" fill="#2EB67D"/>
<path d="M14.4927 17.9657C15.8135 17.9657 16.881 19.0278 16.881 20.3419C16.881 21.656 15.8135 22.7181 14.4927 22.7181C13.1719 22.7181 12.1044 21.656 12.1044 20.3419V17.9657H14.4927ZM14.4927 16.7775C13.1719 16.7775 12.1044 15.7154 12.1044 14.4013C12.1044 13.0872 13.1719 12.0251 14.4927 12.0251H20.4815C21.8023 12.0251 22.8698 13.0872 22.8698 14.4013C22.8698 15.7154 21.8023 16.7775 20.4815 16.7775H14.4927Z" fill="#ECB22E"/>
</g>
<defs>
<clipPath id="clip0_1_186">
<rect width="90.1041" height="22.8622" fill="white"/>
</clipPath>
</defs>
</svg>
