<svg width="84" height="20" viewBox="0 0 84 20" fill="none" xmlns="http://www.w3.org/2000/svg">
<g clip-path="url(#clip0_1_114)">
<path d="M17.2796 18.99H2.62113C1.65218 18.99 0.732922 18.4801 0.285715 17.6094C-0.223603 16.6143 -0.0372671 15.4203 0.74534 14.6366L10.9441 4.42506H3.63976C1.62733 4.42506 0 2.79568 0 0.780717H13.5031C14.4721 0.780717 15.3913 1.29068 15.8385 2.16134C16.3479 3.15638 16.1615 4.35043 15.3789 5.13403L5.18014 15.3456H13.6398C15.6522 15.3456 17.2796 16.975 17.2796 18.99ZM75.2923 0.50708C73.193 0.50708 71.3044 1.41505 70.0124 2.87031C68.7084 1.41505 66.82 0.50708 64.7332 0.50708C60.8323 0.50708 57.6524 3.84048 57.6524 7.73356V18.99C59.6647 18.99 61.292 17.3606 61.292 15.3456V7.69626C61.292 5.81811 62.7455 4.22605 64.6088 4.15143C66.5717 4.07679 68.199 5.65641 68.199 7.6092V15.3456C68.199 17.3606 69.8262 18.99 71.8386 18.99V7.69626C71.8386 5.81811 73.2922 4.22605 75.1552 4.15143C77.1181 4.07679 78.7456 5.65641 78.7456 7.6092V15.3456C78.7456 17.3606 80.3731 18.99 82.3849 18.99V7.73356C82.3725 3.84048 79.1926 0.50708 75.2923 0.50708ZM35.6398 9.88533C35.6398 15.0596 31.4411 19.2637 26.2733 19.2637C21.1057 19.2637 16.9069 15.0596 16.9069 9.88533C16.9069 4.71112 21.1181 0.50708 26.2733 0.50708C31.4287 0.50708 35.6398 4.71112 35.6398 9.88533ZM32.0001 9.88533C32.0001 6.72611 29.4287 4.15143 26.2733 4.15143C23.1181 4.15143 20.5466 6.72611 20.5466 9.88533C20.5466 13.0447 23.1181 15.6193 26.2733 15.6193C29.4287 15.6193 32.0001 13.0447 32.0001 9.88533ZM55.8262 9.88533C55.8262 15.0596 51.6276 19.2637 46.46 19.2637C41.2918 19.2637 37.0932 15.0596 37.0932 9.88533C37.0932 4.71112 41.3047 0.50708 46.46 0.50708C51.6149 0.50708 55.8262 4.71112 55.8262 9.88533ZM52.1865 9.88533C52.1865 6.72611 49.6152 4.15143 46.46 4.15143C43.3046 4.15143 40.733 6.72611 40.733 9.88533C40.733 13.0447 43.3046 15.6193 46.46 15.6193C49.6152 15.6193 52.1865 13.0447 52.1865 9.88533Z" fill="#0B5CFF"/>
</g>
<defs>
<clipPath id="clip0_1_114">
<rect width="83.125" height="19" fill="white" transform="translate(0 0.50708)"/>
</clipPath>
</defs>
</svg>
